<svg width="35" height="35" viewBox="0 0 35 35" fill="none" xmlns="http://www.w3.org/2000/svg">
<g clip-path="url(#clip0_81_871)">
<path d="M17.5 35C27.165 35 35 27.165 35 17.5C35 7.83502 27.165 0 17.5 0C7.83505 0 3.05176e-05 7.83502 3.05176e-05 17.5C3.05176e-05 27.165 7.83505 35 17.5 35Z" fill="#3C5A9A"/>
<path d="M23.1903 5.37158H19.3136C17.013 5.37158 14.4542 6.33916 14.4542 9.67391C14.4654 10.8359 14.4542 11.9487 14.4542 13.2011H11.7927V17.4362H14.5365V29.6284H19.5784V17.3557H22.9062L23.2073 13.1892H19.4915C19.4915 13.1892 19.4998 11.3357 19.4915 10.7975C19.4915 9.47965 20.8627 9.55512 20.9452 9.55512C21.5977 9.55512 22.8665 9.55702 23.1922 9.55512V5.37158H23.1903Z" fill="white"/>
</g>
<defs>
<clipPath id="clip0_81_871">
<rect width="35" height="35" fill="white"/>
</clipPath>
</defs>
</svg>
