<svg width="66" height="60" viewBox="0 0 66 60" fill="none" xmlns="http://www.w3.org/2000/svg">
<path d="M20.2222 50.5263C19.2992 50.5263 18.397 50.8041 17.6296 51.3246C16.8621 51.8451 16.264 52.5849 15.9108 53.4505C15.5576 54.316 15.4652 55.2684 15.6452 56.1873C15.8253 57.1061 16.2697 57.9502 16.9224 58.6126C17.575 59.2751 18.4066 59.7262 19.3118 59.909C20.217 60.0918 21.1554 59.9979 22.0081 59.6394C22.8608 59.2809 23.5896 58.6738 24.1024 57.8948C24.6152 57.1158 24.8889 56.2 24.8889 55.2632C24.8889 54.0069 24.3972 52.802 23.5221 51.9137C22.6469 51.0254 21.4599 50.5263 20.2222 50.5263ZM52.8889 41.0526H15.5556C14.7304 41.0526 13.9391 40.7199 13.3557 40.1277C12.7722 39.5355 12.4444 38.7323 12.4444 37.8947C12.4444 37.0572 12.7722 36.254 13.3557 35.6618C13.9391 35.0695 14.7304 34.7368 15.5556 34.7368H41.9727C43.9993 34.7302 45.9693 34.0571 47.5873 32.8184C49.2053 31.5797 50.3843 29.8421 50.9476 27.866L55.88 10.3418C56.0123 9.87181 56.0354 9.37706 55.9473 8.8965C55.8593 8.41594 55.6625 7.96268 55.3726 7.57242C55.0826 7.18215 54.7074 6.86552 54.2764 6.64747C53.8454 6.42941 53.3704 6.31587 52.8889 6.31579H14.7438C14.0997 4.47587 12.9125 2.88224 11.3438 1.75204C9.77513 0.621846 7.90131 0.0100445 5.97766 0H3.11111C2.28599 0 1.49467 0.332706 0.911223 0.924926C0.327777 1.51715 0 2.32037 0 3.15789C0 3.99542 0.327777 4.79864 0.911223 5.39086C1.49467 5.98308 2.28599 6.31579 3.11111 6.31579H5.97766C6.65303 6.31818 7.30946 6.54257 7.84867 6.95536C8.38788 7.36814 8.78085 7.94712 8.96874 8.60558L9.45258 10.3258L9.45333 10.3418L14.5575 28.475C12.1824 28.7344 9.9956 29.9082 8.44749 31.7549C6.89938 33.6016 6.10778 35.9805 6.23568 38.4018C6.36359 40.8231 7.40126 43.1024 9.13504 44.7705C10.8688 46.4386 13.1667 47.3684 15.5556 47.3684H52.8889C53.714 47.3684 54.5053 47.0357 55.0888 46.4435C55.6722 45.8513 56 45.0481 56 44.2105C56 43.373 55.6722 42.5698 55.0888 41.9776C54.5053 41.3853 53.714 41.0526 52.8889 41.0526ZM48.7646 12.6316L44.9653 26.1297C44.7776 26.7887 44.3845 27.3682 43.845 27.7813C43.3054 28.1944 42.6485 28.4189 41.9727 28.4211H21.0137L20.2205 25.6035L16.5711 12.6316H48.7646ZM45.1111 50.5263C44.1881 50.5263 43.2859 50.8041 42.5185 51.3246C41.751 51.8451 41.1529 52.5849 40.7997 53.4505C40.4465 54.316 40.354 55.2684 40.5341 56.1873C40.7142 57.1061 41.1586 57.9502 41.8113 58.6126C42.4639 59.2751 43.2954 59.7262 44.2007 59.909C45.1059 60.0918 46.0442 59.9979 46.897 59.6394C47.7497 59.2809 48.4785 58.6738 48.9913 57.8948C49.5041 57.1158 49.7778 56.2 49.7778 55.2632C49.7778 54.0069 49.2861 52.802 48.4109 51.9137C47.5358 51.0254 46.3488 50.5263 45.1111 50.5263Z" fill="#C7C7C7"/>
</svg>