<svg width="35" height="35" viewBox="0 0 35 35" fill="none" xmlns="http://www.w3.org/2000/svg">
<g clip-path="url(#clip0_81_848)">
<circle cx="17.5472" cy="17.5472" r="13.6478" fill="white"/>
<path d="M22.7158 9.31152H12.2842C10.6192 9.31152 9.26453 10.6662 9.26453 12.3312V22.7628C9.26453 24.4278 10.6192 25.7829 12.2842 25.7829H22.7158C24.3808 25.7829 25.7359 24.4282 25.7359 22.7628V12.3312C25.7359 10.6662 24.3812 9.31152 22.7158 9.31152ZM17.5 22.9695C14.5104 22.9695 12.0779 20.537 12.0779 17.547C12.0779 14.5574 14.5104 12.1249 17.5 12.1249C20.49 12.1249 22.9225 14.5574 22.9225 17.547C22.9225 20.5367 20.4897 22.9695 17.5 22.9695ZM23.0968 13.246C22.389 13.246 21.8135 12.6704 21.8135 11.9631C21.8135 11.2558 22.389 10.6802 23.0968 10.6802C23.8041 10.6802 24.3797 11.2558 24.3797 11.9631C24.3797 12.6704 23.8041 13.246 23.0968 13.246Z" fill="#FA608E"/>
<path d="M17.5 14.4165C15.7741 14.4165 14.3688 15.8211 14.3688 17.5469C14.3688 19.2736 15.7741 20.6785 17.5 20.6785C19.2266 20.6785 20.6308 19.2736 20.6308 17.5469C20.6308 15.8214 19.2263 14.4165 17.5 14.4165Z" fill="#FA608E"/>
<path d="M17.5 0C7.8354 0 0 7.8354 0 17.5C0 27.1646 7.8354 35 17.5 35C27.1646 35 35 27.1646 35 17.5C35 7.8354 27.1646 0 17.5 0ZM28.0267 22.763C28.0267 25.6918 25.6446 28.0739 22.7158 28.0739H12.2842C9.35577 28.0739 6.97325 25.6918 6.97325 22.763V12.3314C6.97325 9.40295 9.35577 7.02043 12.2842 7.02043H22.7158C25.6446 7.02043 28.0267 9.40295 28.0267 12.3314V22.763Z" fill="#FA608E"/>
</g>
<defs>
<clipPath id="clip0_81_848">
<rect width="35" height="35" fill="white"/>
</clipPath>
</defs>
</svg>
