<svg width="65" height="65" viewBox="0 0 65 65" fill="none" xmlns="http://www.w3.org/2000/svg">
<g clip-path="url(#clip0_75_667)">
<path d="M32.5003 21.6682C30.3577 21.6682 28.2632 22.3036 26.4817 23.494C24.7001 24.6843 23.3116 26.3763 22.4916 28.3558C21.6717 30.3353 21.4571 32.5136 21.8752 34.615C22.2932 36.7165 23.3249 38.6468 24.84 40.1619C26.3551 41.6769 28.2854 42.7087 30.3869 43.1267C32.4883 43.5447 34.6665 43.3302 36.6461 42.5102C38.6256 41.6903 40.3175 40.3018 41.5079 38.5202C42.6983 36.7387 43.3337 34.6442 43.3337 32.5015C43.3337 29.6284 42.1923 26.8729 40.1607 24.8412C38.129 22.8096 35.3735 21.6682 32.5003 21.6682V21.6682ZM32.5003 37.9182C31.429 37.9182 30.3818 37.6005 29.491 37.0053C28.6002 36.4101 27.906 35.5642 27.496 34.5744C27.086 33.5846 26.9787 32.4955 27.1877 31.4448C27.3967 30.3941 27.9126 29.4289 28.6702 28.6714C29.4277 27.9139 30.3929 27.398 31.4436 27.189C32.4943 26.98 33.5834 27.0872 34.5732 27.4972C35.563 27.9072 36.4089 28.6014 37.0041 29.4922C37.5993 30.383 37.917 31.4302 37.917 32.5015C37.917 33.9381 37.3463 35.3159 36.3305 36.3317C35.3147 37.3475 33.9369 37.9182 32.5003 37.9182Z" fill="#84A878"/>
<path d="M57.6714 37.6458L56.4689 36.9525C57.0103 34.007 57.0103 30.9876 56.4689 28.0421L57.6714 27.3487C58.5961 26.8153 59.4067 26.1048 60.0569 25.2581C60.7071 24.4113 61.1841 23.4448 61.4607 22.4137C61.7374 21.3826 61.8082 20.307 61.6692 19.2486C61.5302 18.1901 61.1841 17.1693 60.6506 16.2446C60.1171 15.3199 59.4067 14.5093 58.5599 13.8591C57.7131 13.2089 56.7466 12.7319 55.7155 12.4553C54.6844 12.1786 53.6089 12.1078 52.5504 12.2468C51.4919 12.3858 50.4711 12.7319 49.5464 13.2654L48.3412 13.9615C46.0649 12.0167 43.449 10.509 40.6251 9.51437V8.125C40.6251 5.97012 39.7691 3.90349 38.2454 2.37976C36.7217 0.856024 34.655 0 32.5001 0C30.3453 0 28.2786 0.856024 26.7549 2.37976C25.2312 3.90349 24.3751 5.97012 24.3751 8.125V9.51437C21.5514 10.5126 18.9364 12.0239 16.6618 13.9723L15.4512 13.2708C13.5836 12.1934 11.3645 11.902 9.2821 12.4607C7.19966 13.0194 5.42446 14.3824 4.34702 16.25C3.26958 18.1176 2.97815 20.3367 3.53686 22.4191C4.09556 24.5015 5.45862 26.2767 7.32619 27.3542L8.52869 28.0475C7.98732 30.993 7.98732 34.0124 8.52869 36.9579L7.32619 37.6513C5.45862 38.7287 4.09556 40.5039 3.53686 42.5863C2.97815 44.6688 3.26958 46.8879 4.34702 48.7554C5.42446 50.623 7.19966 51.986 9.2821 52.5447C11.3645 53.1035 13.5836 52.812 15.4512 51.7346L16.6564 51.0385C18.9335 52.9836 21.5503 54.4913 24.3751 55.4856V56.875C24.3751 59.0299 25.2312 61.0965 26.7549 62.6202C28.2786 64.144 30.3453 65 32.5001 65C34.655 65 36.7217 64.144 38.2454 62.6202C39.7691 61.0965 40.6251 59.0299 40.6251 56.875V55.4856C43.4489 54.4874 46.0639 52.9761 48.3385 51.0277L49.5491 51.7265C51.4167 52.8039 53.6358 53.0953 55.7182 52.5366C57.8006 51.9779 59.5758 50.6149 60.6533 48.7473C61.7307 46.8797 62.0221 44.6606 61.4634 42.5782C60.9047 40.4958 59.5417 38.7206 57.6741 37.6431L57.6714 37.6458ZM50.7706 27.4192C51.6877 30.7425 51.6877 34.2521 50.7706 37.5754C50.6104 38.1538 50.6469 38.7691 50.8744 39.3245C51.1019 39.8799 51.5074 40.344 52.0272 40.644L54.9631 42.3394C55.5855 42.6985 56.0397 43.2902 56.2259 43.9843C56.412 44.6783 56.3148 45.4179 55.9557 46.0403C55.5965 46.6627 55.0048 47.117 54.3108 47.3031C53.6167 47.4893 52.8771 47.3921 52.2547 47.0329L49.3135 45.3321C48.7932 45.0307 48.1874 44.9111 47.5916 44.992C46.9959 45.0729 46.4439 45.3498 46.0229 45.779C43.6122 48.2399 40.5752 49.9958 37.2397 50.8571C36.6575 51.0068 36.1417 51.3459 35.7734 51.821C35.4052 52.2962 35.2055 52.8803 35.2058 53.4815V56.875C35.2058 57.5933 34.9204 58.2822 34.4125 58.7901C33.9046 59.298 33.2157 59.5833 32.4974 59.5833C31.7791 59.5833 31.0903 59.298 30.5824 58.7901C30.0744 58.2822 29.7891 57.5933 29.7891 56.875V53.4842C29.7894 52.883 29.5897 52.2989 29.2215 51.8237C28.8532 51.3486 28.3373 51.0095 27.7551 50.8598C24.4194 49.995 21.3833 48.2353 18.9747 45.7708C18.5536 45.3417 18.0017 45.0648 17.4059 44.9839C16.8102 44.903 16.2044 45.0226 15.6841 45.324L12.7483 47.0221C12.4401 47.2027 12.0993 47.3206 11.7454 47.369C11.3916 47.4174 11.0316 47.3953 10.6863 47.304C10.341 47.2127 10.0171 47.054 9.73341 46.8371C9.44968 46.6201 9.21167 46.3492 9.03308 46.0398C8.85449 45.7305 8.73884 45.3889 8.69281 45.0347C8.64677 44.6805 8.67124 44.3207 8.76483 43.976C8.85841 43.6313 9.01925 43.3086 9.23809 43.0263C9.45693 42.744 9.72944 42.5078 10.0399 42.3312L12.9758 40.6358C13.4956 40.3359 13.9011 39.8718 14.1286 39.3164C14.3561 38.7609 14.3926 38.1457 14.2324 37.5673C13.3153 34.244 13.3153 30.7343 14.2324 27.411C14.3897 26.8338 14.3514 26.2208 14.1236 25.6677C13.8958 25.1145 13.4912 24.6523 12.9731 24.3533L10.0372 22.6579C9.41483 22.2988 8.96059 21.7071 8.77444 21.013C8.58829 20.319 8.68548 19.5794 9.04463 18.957C9.40377 18.3346 9.99546 17.8803 10.6895 17.6942C11.3836 17.508 12.1232 17.6052 12.7456 17.9644L15.6868 19.6652C16.2057 19.9672 16.8102 20.0883 17.4053 20.0094C18.0005 19.9304 18.5525 19.656 18.9747 19.2292C21.3854 16.7682 24.4223 15.0123 27.7579 14.151C28.3419 14.0009 28.8591 13.6602 29.2275 13.1828C29.5959 12.7055 29.7945 12.1188 29.7918 11.5158V8.125C29.7918 7.40671 30.0772 6.71783 30.5851 6.20992C31.093 5.70201 31.7819 5.41667 32.5001 5.41667C33.2184 5.41667 33.9073 5.70201 34.4152 6.20992C34.9231 6.71783 35.2085 7.40671 35.2085 8.125V11.5158C35.2082 12.117 35.4079 12.7011 35.7761 13.1763C36.1444 13.6514 36.6602 13.9905 37.2424 14.1402C40.5791 15.0046 43.6162 16.7643 46.0256 19.2292C46.4466 19.6583 46.9986 19.9352 47.5944 20.0161C48.1901 20.097 48.7959 19.9774 49.3162 19.676L52.252 17.9779C52.5601 17.7973 52.901 17.6794 53.2549 17.631C53.6087 17.5826 53.9687 17.6047 54.314 17.696C54.6593 17.7873 54.9832 17.946 55.2669 18.1629C55.5506 18.3799 55.7886 18.6508 55.9672 18.9602C56.1458 19.2695 56.2615 19.6111 56.3075 19.9653C56.3535 20.3195 56.329 20.6793 56.2355 21.024C56.1419 21.3687 55.981 21.6914 55.7622 21.9737C55.5434 22.256 55.2709 22.4922 54.9604 22.6687L52.0245 24.3642C51.5074 24.664 51.1039 25.1265 50.8771 25.6796C50.6503 26.2327 50.6128 26.8453 50.7706 27.4219V27.4192Z" fill="#84A878"/>
</g>
<defs>
<clipPath id="clip0_75_667">
<rect width="65" height="65" fill="white"/>
</clipPath>
</defs>
</svg>
