<svg width="20" height="20" viewBox="0 0 20 20" fill="none" xmlns="http://www.w3.org/2000/svg">
<path d="M19.1334 9.16613C18.9125 9.16613 18.7006 9.07836 18.5443 8.92211C18.3881 8.76586 18.3003 8.55395 18.3003 8.33298C18.2985 6.5658 17.5957 4.8715 16.3461 3.62191C15.0966 2.37233 13.4023 1.66953 11.6351 1.66777C11.4141 1.66777 11.2022 1.57999 11.046 1.42375C10.8897 1.2675 10.8019 1.05558 10.8019 0.834618C10.8019 0.613652 10.8897 0.401737 11.046 0.245491C11.2022 0.0892443 11.4141 0.00146607 11.6351 0.00146607C13.844 0.00389187 15.9617 0.882453 17.5237 2.44439C19.0856 4.00633 19.9642 6.12407 19.9666 8.33298C19.9666 8.55395 19.8788 8.76586 19.7226 8.92211C19.5663 9.07836 19.3544 9.16613 19.1334 9.16613ZM16.634 8.33298C16.634 7.00719 16.1073 5.7357 15.1698 4.79822C14.2324 3.86074 12.9609 3.33407 11.6351 3.33407C11.4141 3.33407 11.2022 3.42185 11.046 3.5781C10.8897 3.73434 10.8019 3.94626 10.8019 4.16722C10.8019 4.38819 10.8897 4.60011 11.046 4.75635C11.2022 4.9126 11.4141 5.00038 11.6351 5.00038C12.5189 5.00038 13.3666 5.35149 13.9916 5.97647C14.6166 6.60146 14.9677 7.44912 14.9677 8.33298C14.9677 8.55395 15.0555 8.76586 15.2117 8.92211C15.368 9.07836 15.5799 9.16613 15.8008 9.16613C16.0218 9.16613 16.2337 9.07836 16.39 8.92211C16.5462 8.76586 16.634 8.55395 16.634 8.33298ZM18.4528 18.4674L19.2109 17.5935C19.6935 17.1093 19.9645 16.4537 19.9645 15.7701C19.9645 15.0866 19.6935 14.4309 19.2109 13.9468C19.1851 13.9209 17.1805 12.3788 17.1805 12.3788C16.6994 11.9208 16.0604 11.6658 15.3962 11.6667C14.732 11.6677 14.0936 11.9245 13.6138 12.3838L12.0258 13.7218C10.7296 13.1853 9.5521 12.3981 8.56099 11.4052C7.56987 10.4124 6.78465 9.23357 6.25042 7.9364L7.58346 6.35341C8.04313 5.87366 8.30022 5.23522 8.30131 4.57081C8.30239 3.90639 8.04739 3.26711 7.58929 2.78586C7.58929 2.78586 6.04546 0.783795 6.01964 0.757968C5.54428 0.279529 4.89978 0.00731647 4.22538 0.000145342C3.55099 -0.00702579 2.90084 0.25142 2.41542 0.719643L1.4573 1.55279C-4.20313 8.1197 7.98587 20.2146 14.7694 19.9971C15.4544 20.0011 16.1333 19.8678 16.7659 19.605C17.3985 19.3423 17.9721 18.9555 18.4528 18.4674Z" fill="white"/>
</svg>
