<svg width="33" height="24" viewBox="0 0 33 24" fill="none" xmlns="http://www.w3.org/2000/svg">
<path d="M16.1205 20.8405C14.2848 20.8388 12.7257 22.1839 12.4584 24H19.7826C19.5152 22.1839 17.9561 20.8387 16.1205 20.8405Z" fill="white"/>
<path d="M31.8099 12.7624L27.5734 3.53542H29.5481C29.8455 3.53542 30.0866 3.29428 30.0866 2.99686C30.0866 2.69944 29.8455 2.4583 29.5481 2.4583H19.1721C18.8043 0.772867 17.1399 -0.295319 15.4545 0.0724716C14.2612 0.332852 13.3291 1.26497 13.0687 2.4583H2.69277C2.39535 2.4583 2.15421 2.69944 2.15421 2.99686C2.15421 3.29428 2.39535 3.53542 2.69277 3.53542H4.66745L0.430919 12.7624C0.176105 12.8144 -0.00517857 13.0409 0.000112877 13.301C4.41573e-05 16.3605 2.46978 18.8461 5.52913 18.8659C8.58058 18.8466 11.055 16.3881 11.0941 13.3369C11.0895 13.053 10.9001 12.8054 10.6273 12.7265L6.39081 3.53535H13.0328C13.2413 4.78269 14.1736 5.78559 15.4024 6.08445V19.6916H16.4795V6.15627C17.8694 5.98398 18.98 4.91724 19.2081 3.53535H25.8501L21.6136 12.7265C21.3464 12.791 21.1553 13.0261 21.1468 13.3009C21.1467 16.3604 23.6165 18.8461 26.6758 18.8658C29.7331 18.8272 32.202 16.3582 32.2408 13.3009C32.246 13.0409 32.0647 12.8144 31.8099 12.7624ZM9.44254 12.8701H1.61572L5.52913 4.46884L9.44254 12.8701ZM22.7984 12.8701L26.7118 4.46884L30.6252 12.8701H22.7984Z" fill="white"/>
</svg>
