<svg width="71" height="65" viewBox="0 0 71 65" fill="none" xmlns="http://www.w3.org/2000/svg">
<path d="M56.0734 11.8049H49.8759C49.1909 8.47421 47.3786 5.48146 44.7444 3.33111C42.1102 1.18076 38.8152 0.00429264 35.4148 0H14.7562C10.844 0.00468614 7.09346 1.56085 4.32716 4.32716C1.56085 7.09346 0.00468614 10.844 0 14.7562L0 41.3173C0.00741882 43.9605 0.901714 46.5247 2.53964 48.5993C4.17757 50.6739 6.46436 52.1387 9.03373 52.7592C8.75561 54.2362 8.80314 55.756 9.173 57.2127C9.54286 58.6693 10.2261 60.0278 11.1751 61.1931C12.1241 62.3585 13.316 63.3028 14.6676 63.96C16.0192 64.6172 17.4979 64.9716 19.0005 64.9984C20.5032 65.0251 21.9936 64.7237 23.3677 64.1151C24.7419 63.5064 25.9667 62.6053 26.9566 61.4745C27.9465 60.3437 28.6778 59.0105 29.0993 57.5679C29.5209 56.1253 29.6225 54.6081 29.3972 53.1222H41.4442C41.3682 53.6105 41.3278 54.1037 41.3232 54.5978C41.3232 57.3373 42.4114 59.9646 44.3486 61.9018C46.2857 63.8389 48.913 64.9272 51.6525 64.9272C54.392 64.9272 57.0193 63.8389 58.9564 61.9018C60.8936 59.9646 61.9818 57.3373 61.9818 54.5978C61.9785 53.9807 61.9182 53.3653 61.8018 52.7592C64.3701 52.1376 66.6555 50.6723 68.2923 48.5978C69.9291 46.5233 70.8225 43.9597 70.8296 41.3173V26.5611C70.8249 22.649 69.2688 18.8984 66.5025 16.1321C63.7362 13.3658 59.9856 11.8096 56.0734 11.8049ZM64.9271 26.5611V29.5123H50.171V17.7074H56.0734C58.4216 17.7074 60.6736 18.6402 62.334 20.3006C63.9944 21.961 64.9271 24.213 64.9271 26.5611ZM5.90247 41.3173V14.7562C5.90247 12.408 6.83527 10.156 8.49566 8.49566C10.156 6.83527 12.408 5.90247 14.7562 5.90247H35.4148C37.763 5.90247 40.0149 6.83527 41.6753 8.49566C43.3357 10.156 44.2685 12.408 44.2685 14.7562V47.2197H11.8049C10.2395 47.2197 8.73819 46.5979 7.63126 45.491C6.52433 44.384 5.90247 42.8827 5.90247 41.3173ZM23.6099 54.5978C23.6099 55.7719 23.1435 56.8979 22.3133 57.7281C21.4831 58.5583 20.3571 59.0247 19.183 59.0247C18.0089 59.0247 16.883 58.5583 16.0528 57.7281C15.2226 56.8979 14.7562 55.7719 14.7562 54.5978C14.758 54.0934 14.851 53.5935 15.0306 53.1222H23.3354C23.5151 53.5935 23.6081 54.0934 23.6099 54.5978ZM51.6466 59.0247C50.4725 59.0247 49.3465 58.5583 48.5163 57.7281C47.6861 56.8979 47.2197 55.7719 47.2197 54.5978C47.221 54.0934 47.314 53.5934 47.4942 53.1222H55.799C55.9792 53.5934 56.0722 54.0934 56.0734 54.5978C56.0734 55.7719 55.607 56.8979 54.7769 57.7281C53.9467 58.5583 52.8207 59.0247 51.6466 59.0247ZM59.0247 47.2197H50.171V35.4148H64.9271V41.3173C64.9271 42.8827 64.3053 44.384 63.1984 45.491C62.0914 46.5979 60.5901 47.2197 59.0247 47.2197Z" fill="#84A878"/>
</svg>
