<svg width="196" height="160" viewBox="0 0 196 160" fill="none" xmlns="http://www.w3.org/2000/svg">
<path d="M16.3135 48.311C15.4322 49.3053 14.8316 47.694 14.9277 46.7855C15.2407 43.8267 18.3954 40.2448 20.007 38.2238C25.3233 31.557 32.7817 22.7199 41.5048 20.5919C56.6233 16.9036 40.142 51.276 38.2718 55.0027C35.2456 61.0329 31.9255 67.2845 27.6587 72.567C22.9168 78.4378 28.2575 67.31 28.2641 67.2986C38.2265 50.1248 52.869 32.3882 68.8554 20.5116C77.1412 14.356 93.3702 10.9613 94.3651 25.6871C94.8243 32.4838 91.9725 39.1936 89.1021 45.1655C82.467 58.9702 73.5738 71.5565 66.5367 85.1455C63.0249 91.9269 59.4714 99.2906 58.5096 106.976C57.8746 112.05 59.636 115.582 64.3526 111.423C72.1044 104.588 132.597 29.3368 141.877 40.5698C144.235 43.4244 141.025 50.3208 140.094 52.6264C136.101 62.5148 130.944 71.9889 125.973 81.4033C120.374 92.0069 114.447 102.441 109.221 113.239C104.902 122.161 99.7004 132.244 98.2315 142.212C97.5793 146.639 100.653 143.287 102.021 141.9C107.117 136.732 111.861 131.23 116.984 126.079C123.611 119.415 130.394 112.738 137.824 106.957C141.341 104.22 150.036 96.6848 155.408 99.3548C159.025 101.153 159.553 107.289 159.895 110.528C160.787 118.979 159.681 127.669 161.526 136.021C164.563 149.773 175.685 137.453 180.962 132.268" stroke="#84A878" stroke-width="29.2119" stroke-linecap="round"/>
</svg>
