<svg fill="none" version="1.1" viewBox="0 0 16 16" width="16" height="16" xmlns="http://www.w3.org/2000/svg">
 <g clip-path="url(#clip0_10_1095)" fill="currentColor">
  <path d="m10.85 9.4128-2.2308-1.6731v-3.4082c0-0.34269-0.277-0.61969-0.61969-0.61969s-0.61969 0.277-0.61969 0.61969v3.7181c0 0.19519 0.09172 0.37925 0.24787 0.49575l2.4786 1.8591c0.1116 0.0836 0.2417 0.1239 0.3712 0.1239 0.189 0 0.3749-0.0849 0.4964-0.2485 0.2058-0.2733 0.15-0.66184-0.1239-0.86696z"/>
  <path d="m8 0c-4.4115 0-8 3.5885-8 8 0 4.4115 3.5885 8 8 8 4.4115 0 8-3.5885 8-8 0-4.4115-3.5885-8-8-8zm0 14.761c-3.7273 0-6.7607-3.0334-6.7607-6.7607 0-3.7273 3.0333-6.7607 6.7607-6.7607 3.728 0 6.7607 3.0333 6.7607 6.7607 0 3.7273-3.0334 6.7607-6.7607 6.7607z"/>
 </g>
</svg>
