<svg width="126" height="41" viewBox="0 0 126 41" fill="none" xmlns="http://www.w3.org/2000/svg" role="img" aria-label="@@aria-label">
<path d="M49.2398 36.3778C46.9823 36.3778 45.0594 35.8866 43.4708 34.9042C41.8823 33.9113 40.6647 32.5318 39.8182 30.7656C38.9821 28.9994 38.5641 26.951 38.5641 24.6204C38.5641 22.2898 38.9821 20.2415 39.8182 18.4752C40.6647 16.709 41.8823 15.3347 43.4708 14.3523C45.0594 13.3595 46.9823 12.8631 49.2398 12.8631C51.842 12.8631 53.995 13.5215 55.6985 14.8383C57.4124 16.1551 58.6038 17.9266 59.2727 20.1526L55.9493 21.0462C55.5103 19.4681 54.7265 18.2296 53.5978 17.3309C52.4796 16.4321 51.0269 15.9827 49.2398 15.9827C47.6408 15.9827 46.3083 16.3432 45.2423 17.0644C44.1763 17.7855 43.3715 18.794 42.8281 20.0899C42.2951 21.3858 42.0286 22.896 42.0286 24.6204C42.0181 26.3448 42.2794 27.855 42.8124 29.1509C43.3559 30.4468 44.1606 31.4554 45.2266 32.1765C46.303 32.8976 47.6408 33.2581 49.2398 33.2581C51.0269 33.2581 52.4796 32.8088 53.5978 31.91C54.7265 31.0007 55.5103 29.7623 55.9493 28.1946L59.2727 29.0882C58.6038 31.3143 57.4124 33.0857 55.6985 34.4025C53.995 35.7194 51.842 36.3778 49.2398 36.3778ZM62.7205 35.9075V13.3334H71.8442C72.0637 13.3334 72.3354 13.3438 72.6594 13.3647C72.9834 13.3752 73.2917 13.4065 73.5843 13.4588C74.8385 13.6573 75.8835 14.0858 76.7196 14.7442C77.5662 15.4026 78.1984 16.2335 78.6165 17.2368C79.0345 18.2401 79.2435 19.3479 79.2435 20.5602C79.2435 21.783 79.0345 22.896 78.6165 23.8993C78.1984 24.9026 77.5662 25.7334 76.7196 26.3919C75.8835 27.0503 74.8385 27.4788 73.5843 27.6773C73.2917 27.7191 72.9782 27.7505 72.6437 27.7714C72.3198 27.7923 72.0533 27.8027 71.8442 27.8027H65.9969V35.9075H62.7205ZM65.9969 24.6988H71.7188C71.9279 24.6988 72.1578 24.6883 72.4086 24.6674C72.6699 24.6465 72.9155 24.61 73.1454 24.5577C73.8143 24.4009 74.3525 24.1135 74.7601 23.6955C75.1677 23.267 75.4603 22.7758 75.638 22.2219C75.8156 21.668 75.9045 21.1141 75.9045 20.5602C75.9045 20.0063 75.8156 19.4576 75.638 18.9142C75.4603 18.3603 75.1677 17.8743 74.7601 17.4563C74.3525 17.0278 73.8143 16.7351 73.1454 16.5784C72.9155 16.5157 72.6699 16.4739 72.4086 16.453C72.1578 16.4321 71.9279 16.4216 71.7188 16.4216H65.9969V24.6988ZM82.3774 35.9075V13.3334H91.5011C91.7205 13.3334 91.9923 13.3438 92.3162 13.3647C92.6402 13.3752 92.9485 13.4065 93.2412 13.4588C94.4953 13.6573 95.5404 14.0858 96.3764 14.7442C97.223 15.4026 97.8553 16.2335 98.2733 17.2368C98.6913 18.2401 98.9004 19.3479 98.9004 20.5602C98.9004 22.3578 98.4405 23.9097 97.5208 25.2161C96.6011 26.512 95.2216 27.322 93.3822 27.646L92.0497 27.8027H85.6537V35.9075H82.3774ZM95.577 35.9075L91.1248 26.7211L94.4326 25.8745L99.3236 35.9075H95.577ZM85.6537 24.6988H91.3757C91.5847 24.6988 91.8146 24.6883 92.0654 24.6674C92.3267 24.6465 92.5723 24.61 92.8022 24.5577C93.4711 24.4009 94.0093 24.1135 94.4169 23.6955C94.8245 23.267 95.1171 22.7758 95.2948 22.2219C95.4724 21.668 95.5613 21.1141 95.5613 20.5602C95.5613 20.0063 95.4724 19.4576 95.2948 18.9142C95.1171 18.3603 94.8245 17.8743 94.4169 17.4563C94.0093 17.0278 93.4711 16.7351 92.8022 16.5784C92.5723 16.5157 92.3267 16.4739 92.0654 16.453C91.8146 16.4321 91.5847 16.4216 91.3757 16.4216H85.6537V24.6988ZM112.191 36.3778C109.933 36.3778 108.01 35.8866 106.422 34.9042C104.833 33.9113 103.616 32.5318 102.769 30.7656C101.933 28.9994 101.515 26.951 101.515 24.6204C101.515 22.2898 101.933 20.2415 102.769 18.4752C103.616 16.709 104.833 15.3347 106.422 14.3523C108.01 13.3595 109.933 12.8631 112.191 12.8631C114.438 12.8631 116.355 13.3595 117.944 14.3523C119.543 15.3347 120.76 16.709 121.596 18.4752C122.433 20.2415 122.851 22.2898 122.851 24.6204C122.851 26.951 122.433 28.9994 121.596 30.7656C120.76 32.5318 119.543 33.9113 117.944 34.9042C116.355 35.8866 114.438 36.3778 112.191 36.3778ZM112.191 33.2581C113.79 33.279 115.117 32.9289 116.172 32.2078C117.238 31.4763 118.038 30.4625 118.571 29.1666C119.104 27.8602 119.37 26.3448 119.37 24.6204C119.37 22.896 119.104 21.3911 118.571 20.1056C118.038 18.8097 117.238 17.8011 116.172 17.08C115.117 16.3589 113.79 15.9931 112.191 15.9827C110.592 15.9618 109.259 16.3119 108.193 17.033C107.138 17.7541 106.343 18.7679 105.81 20.0742C105.277 21.3806 105.006 22.896 104.995 24.6204C104.985 26.3448 105.246 27.855 105.779 29.1509C106.312 30.4364 107.111 31.4397 108.177 32.1608C109.254 32.8819 110.592 33.2477 112.191 33.2581Z" fill="#A97CF0"/>
<path d="M0.795441 19.2507L13.1242 2.10852C13.8761 1.06315 15.4264 1.0477 16.1989 2.07788L29.0537 19.2202C29.5594 19.8946 29.5625 20.821 29.0613 21.4987L16.2067 38.8823C15.4347 39.9262 13.8681 39.9107 13.117 38.8517L0.788109 21.4679C0.316651 20.8031 0.319596 19.9123 0.795441 19.2507Z" fill="#A97CF0"/>
</svg>
