<svg width="15" height="15" viewBox="0 0 15 15" fill="none" xmlns="http://www.w3.org/2000/svg">
<g>
<path d="M6.61442 12.831C6.0225 13.4071 5.22755 13.727 4.40157 13.7215C3.5756 13.7159 2.78501 13.3854 2.20086 12.8014C1.61671 12.2175 1.28598 11.427 1.28021 10.601C1.27444 9.77502 1.59411 8.97998 2.17004 8.3879L4.83379 5.72228L3.94942 4.83853L1.28629 7.50415C0.462713 8.32814 0.000195386 9.44555 0.00048842 10.6106C0.000781455 11.7756 0.463861 12.8927 1.28786 13.7163C2.11185 14.5399 3.22926 15.0024 4.39427 15.0021C5.55928 15.0018 6.67646 14.5388 7.50004 13.7148L10.1638 11.051L9.28004 10.1673L6.61442 12.831Z" fill="#9157EC"/>
<path d="M13.7149 1.28838C13.3082 0.878894 12.8243 0.554184 12.2912 0.33307C11.7581 0.111955 11.1864 -0.00116614 10.6093 0.000259541V0.000259541C10.0324 -0.00127279 9.46103 0.111558 8.92807 0.332229C8.39512 0.5529 7.91119 0.877032 7.50428 1.28588L4.8374 3.95026L5.72115 4.83463L8.38678 2.17088C8.67775 1.87817 9.02389 1.64607 9.40517 1.48805C9.78646 1.33002 10.1953 1.2492 10.608 1.25026V1.25026C11.2294 1.25047 11.8368 1.4349 12.3535 1.78026C12.8701 2.12561 13.2727 2.61638 13.5104 3.19052C13.7482 3.76466 13.8103 4.3964 13.6891 5.00587C13.5679 5.61534 13.2686 6.17519 12.8293 6.61463L10.1655 9.27838L11.0499 10.1628L13.7137 7.50026C14.5362 6.67594 14.9982 5.55907 14.9985 4.39458C14.9987 3.23009 14.5371 2.11303 13.7149 1.28838V1.28838Z" fill="#9157EC"/>
<path d="M9.27833 4.83868L4.83813 9.27887L5.72202 10.1628L10.1622 5.72256L9.27833 4.83868Z" fill="#9157EC"/>
</g>
</svg>
