<svg width="145" height="99" viewBox="0 0 145 99" fill="none" xmlns="http://www.w3.org/2000/svg">
<path d="M70.959 26.2142C75.9118 26.2142 78.2142 23.7512 78.2142 20.8866C78.2142 14.0062 66.8629 16.8708 66.8629 12.2928C66.8629 10.6597 68.2283 9.3211 71.4142 9.3211C73.074 9.3211 74.9213 9.80299 76.5544 10.8471L77.4378 8.70534C75.8851 7.63447 73.6095 7.04549 71.4142 7.04549C66.4881 7.04549 64.2393 9.5085 64.2393 12.3999C64.2393 19.3606 75.5906 16.4692 75.5906 21.0472C75.5906 22.6803 74.1984 23.9386 70.959 23.9386C68.5496 23.9386 66.1669 23.0283 64.7747 21.77L63.7842 23.8582C65.2834 25.2504 68.0945 26.2142 70.959 26.2142ZM96.1272 26H98.9382L90.4247 7.25966H87.7743L79.2876 26H82.0451L84.1066 21.3149H94.0657L96.1272 26ZM85.0436 19.1732L89.0861 9.99039L93.1287 19.1732H85.0436ZM115.173 7.25966V21.2346L103.929 7.25966H101.734V26H104.411V12.0251L115.655 26H117.85V7.25966H115.173ZM65.4976 92H78.3213V89.6708H68.1748V73.2597H65.4976V92ZM88.8435 92.2142C93.7963 92.2142 96.768 89.3496 96.768 83.9149V73.2597H94.1711V83.8078C94.1711 87.9574 92.2436 89.8315 88.8703 89.8315C85.497 89.8315 83.5962 87.9574 83.5962 83.8078V73.2597H80.919V83.9149C80.919 89.3496 83.9175 92.2142 88.8435 92.2142ZM116.854 92L109.759 82.3086L116.372 73.2597H113.454L108.26 80.4613L103.013 73.2597H99.9606L106.573 82.3889L99.5322 92H102.611L108.153 84.2629L113.775 92H116.854Z" fill="white"/>
<path d="M64.9086 59H73.4221C79.5528 59 83.756 55.3055 83.756 49.6298C83.756 43.9542 79.5528 40.2597 73.4221 40.2597H64.9086V59ZM69.2456 55.4393V43.8203H73.2079C76.9292 43.8203 79.3654 46.0424 79.3654 49.6298C79.3654 53.2173 76.9292 55.4393 73.2079 55.4393H69.2456ZM100.107 40.2597L94.3238 53.6456L88.6214 40.2597H83.9363L92.0214 59H96.3049L104.417 40.2597H100.107ZM110.292 55.5197V51.1826H118.993V47.8093H110.292V43.74H120.144V40.2597H105.982V59H120.492V55.5197H110.292ZM140.541 59L136.338 52.9763C138.774 51.9322 140.193 49.8708 140.193 47.0597C140.193 42.8565 137.061 40.2597 132.055 40.2597H123.943V59H128.28V53.7795H132.055H132.269L135.883 59H140.541ZM135.803 47.0597C135.803 49.0944 134.464 50.3259 131.814 50.3259H128.28V43.7936H131.814C134.464 43.7936 135.803 44.9983 135.803 47.0597Z" fill="#FFC907"/>
<rect x="1.74998" y="5.5" width="45.6122" height="87.1791" stroke="white" stroke-width="3"/>
<rect x="0.25" y="48" width="21.1357" height="3" fill="white"/>
<rect width="3" height="3" transform="matrix(-1 0 0 1 25.2686 48)" fill="white"/>
</svg>
