<svg width="16" height="16" viewBox="0 0 16 16" fill="none" xmlns="http://www.w3.org/2000/svg">
<path d="M7.99998 0C4.80482 0 2.20538 2.59944 2.20538 5.79456C2.20538 9.75981 7.39098 15.581 7.61176 15.8269C7.81913 16.0579 8.1812 16.0575 8.3882 15.8269C8.60898 15.581 13.7946 9.75981 13.7946 5.79456C13.7945 2.59944 11.1951 0 7.99998 0ZM7.99998 14.679C6.25476 12.606 3.24888 8.516 3.24888 5.79463C3.24888 3.17481 5.3802 1.0435 7.99998 1.0435C10.6198 1.0435 12.7511 3.17481 12.7511 5.79459C12.751 8.5161 9.74563 12.6053 7.99998 14.679Z" fill="currentColor"/>
<path d="M7.99997 2.87918C6.39241 2.87918 5.08459 4.18702 5.08459 5.79459C5.08459 7.40215 6.39244 8.70999 7.99997 8.70999C9.6075 8.70999 10.9153 7.40215 10.9153 5.79459C10.9153 4.18702 9.6075 2.87918 7.99997 2.87918ZM7.99997 7.66649C6.96778 7.66649 6.12809 6.82677 6.12809 5.79459C6.12809 4.7624 6.96781 3.92268 7.99997 3.92268C9.03212 3.92268 9.87184 4.7624 9.87184 5.79459C9.87184 6.82677 9.03212 7.66649 7.99997 7.66649Z" fill="currentColor"/>
</svg>
