<svg fill="none" version="1.1" viewBox="0 0 31 31" width="31" height="31" xmlns="http://www.w3.org/2000/svg">
 <g>
  <path d="m28.054 16.242a11.812 11.812 0 0 1-11.812 11.812 11.812 11.812 0 0 1-11.812-11.812 11.812 11.812 0 0 1 11.812-11.812 11.812 11.812 0 0 1 11.812 11.812z" fill="#fff"/>
  <path d="m15.5 31c8.5625 0 15.5-6.9375 15.5-15.5 0-8.5625-6.9375-15.5-15.5-15.5-8.5625 0-15.5 6.9375-15.5 15.5 0 8.5625 6.9375 15.5 15.5 15.5zm-8.4075-15.836 14.945-5.7622c0.6937-0.25058 1.2994 0.16921 1.0747 1.2181l0.0013-0.0013-2.5446 11.988c-0.1886 0.8499-0.6936 1.0565-1.4002 0.6561l-3.875-2.8559-1.869 1.8006c-0.2067 0.2067-0.3811 0.3811-0.7815 0.3811l0.2752-3.9435 7.1816-6.488c0.3126-0.2752-0.0697-0.4302-0.4818-0.1563l-8.875 5.5877-3.8259-1.1935c-0.83054-0.2635-0.84862-0.8305 0.17567-1.2309z" fill="#008DDD"/>
 </g>
</svg>
