<svg fill="none" version="1.1" viewBox="0 0 31 31" width="31" height="31" xmlns="http://www.w3.org/2000/svg">
 <path d="m18.6 0h-6.2008c-5.9835 0-10.851 4.8678-10.851 10.851v4.6506c0 4.2008 2.4227 8.013 6.2008 9.8062v5.179c0 0.4497 0.56254 0.6848 0.88211 0.3654l4.4992-4.4992h5.4701c5.9835 0 10.851-4.8679 10.851-10.851v-4.6506c0-5.9836-4.8679-10.851-10.851-10.851z" fill="#665CAC"/>
 <path d="m9.2992 25.308c-3.7781-1.7933-6.2008-5.6055-6.2008-9.8063v-4.6506c0-5.9834 4.8679-10.851 10.851-10.851h-1.5502c-5.9835 0-10.851 4.8678-10.851 10.851v4.6506c0 4.2008 2.4227 8.013 6.2008 9.8062v5.179c0 0.4497 0.56254 0.6848 0.88211 0.3654l0.66808-0.668v-4.8764z" fill="#523494"/>
 <path d="m23.301 19.26-0.4645-2.5167c-0.0385-0.2079-0.1995-0.3714-0.4068-0.4129l-3.6539-0.7307c-0.1697-0.0338-0.3445 0.0192-0.4668 0.1413l-1.4844 1.4845c-2.5011-1.1207-3.8892-2.5118-5.1105-5.1202l1.4796-1.4796c0.1221-0.1222 0.1752-0.2974 0.1413-0.4668l-0.7307-3.6539c-0.0415-0.20725-0.205-0.36843-0.4129-0.40681l-2.5167-0.46452c-0.06891-0.01265-0.13987-0.01132-0.20829 0.00424-0.6645 0.15094-1.2708 0.48577-1.7534 0.96851-0.83567 0.83566-1.1551 2.0551-0.92352 3.5264 0.38865 2.4707 1.5991 5.909 3.8324 8.1513l0.0305 0.0302c2.2405 2.2317 5.6789 3.4423 8.1497 3.831 0.3113 0.0491 0.611 0.0733 0.8985 0.0733 1.0714 0 1.969-0.3379 2.628-0.9969 0.4827-0.4826 0.8176-1.089 0.9685-1.7533 0.0153-0.0685 0.0168-0.1394 4e-3 -0.2084z" fill="#fff"/>
 <path d="m20.675 21.244c-0.2874 0-0.5872-0.0242-0.8985-0.0733-2.4707-0.3887-5.9091-1.5993-8.1497-3.831l-0.0305-0.0302c-2.2332-2.2423-3.4437-5.6806-3.8324-8.1513-0.18703-1.1887-0.0141-2.2129 0.49988-3.0032-0.19684 0.13132-0.38157 0.28196-0.5508 0.45119-0.83566 0.83567-1.155 2.0551-0.92352 3.5265 0.38865 2.4706 1.5991 5.909 3.8324 8.1512l0.0305 0.0303c2.2405 2.2317 5.6789 3.4423 8.1497 3.831 0.3112 0.049 0.611 0.0733 0.8985 0.0733 1.0714 0 1.969-0.3379 2.628-0.9969 0.1692-0.1692 0.3198-0.3539 0.4512-0.5508-0.5835 0.3796-1.2944 0.5732-2.1048 0.5732z" fill="#E5E5E5"/>
 <path d="m16.533 4.6504c-0.1847 0-0.37059 0.0075044-0.55469 0.021484-0.2846 0.02156-0.49816 0.27018-0.47656 0.55469 0.0214 0.28457 0.27089 0.49812 0.55469 0.47656 0.1582-0.01205 0.31776-0.019531 0.47656-0.019531 3.4191 0 6.2012 2.782 6.2012 6.2012 0 0.4837-0.056016 0.96564-0.16602 1.4316-0.0632 0.267 0.10249 0.54469 0.36719 0.61719 0.2786 0.0763 0.57227-0.097907 0.63867-0.37891 0.1285-0.5438 0.19336-1.1062 0.19336-1.6699 0-3.989-3.2454-7.2344-7.2344-7.2344zm0 2.0664c-0.1912 0-0.38287 0.01036-0.57226 0.03125-0.2836 0.03131-0.48833 0.28659-0.45703 0.57031 0.0313 0.28373 0.28711 0.48785 0.57031 0.45703 0.1519-0.01677 0.30548-0.025391 0.45898-0.025391 2.2794 0 4.1348 1.8553 4.1348 4.1348 0 0.1535-0.008591 0.30904-0.025391 0.46094-0.0309 0.2798 0.17713 0.53951 0.45703 0.57031 0.2799 0.0308 0.53931-0.17713 0.57031-0.45703 0.0209-0.1894 0.03125-0.38302 0.03125-0.57422 0-2.8492-2.3188-5.168-5.168-5.168zm0 2.0684c-0.2853 0-0.51562 0.23027-0.51562 0.51562 0 0.28536 0.23032 0.51758 0.51562 0.51758 1.1398 0 2.0664 0.92671 2.0664 2.0664 0 0.2815 0.23608 0.51758 0.51758 0.51758 0.2815 0 0.51758-0.23608 0.51758-0.51758 1e-4 -1.7096-1.392-3.0996-3.1016-3.0996z" fill="#fff"/>
</svg>
