<svg width="193" height="88" viewBox="0 0 193 88" fill="none" xmlns="http://www.w3.org/2000/svg">
<g filter="url(#filter0_d_22_983)">
<path d="M36.3539 65.7895C34.5968 65.7895 33.0454 64.6427 32.5299 62.9629L21.6016 27.3491C20.8083 24.764 22.7553 22.153 25.4593 22.1758L26.649 22.1858C28.3944 22.2005 29.9287 23.3452 30.4399 25.0141L34.3497 37.7769C35.5025 41.5403 40.8263 41.5508 41.9941 37.7921L45.9611 25.0237C46.481 23.3506 48.0291 22.2105 49.781 22.2105H52.1266C53.8805 22.2105 55.4299 23.3531 55.9481 25.0288L59.8935 37.7871C61.0563 41.5474 66.3801 41.5438 67.5379 37.782L71.4617 25.0338C71.9782 23.3557 73.5288 22.2105 75.2847 22.2105H76.4973C79.1881 22.2105 81.1114 24.8139 80.3207 27.3859L69.3828 62.9649C68.8667 64.6437 67.3158 65.7895 65.5594 65.7895H63.7694C62.0456 65.7895 60.5157 64.6851 59.9729 63.049L54.7398 47.2757C53.5268 43.6194 48.3538 43.6225 47.1453 47.2803L41.9367 63.0444C41.3953 64.6829 39.8642 65.7895 38.1386 65.7895H36.3539Z" fill="#F1F3F9"/>
<path d="M96.4623 67C92.0777 67 88.248 66.0181 84.9731 64.0544C81.6982 62.0906 79.154 59.3871 77.3407 55.9439C75.5544 52.4737 74.6612 48.4924 74.6612 44C74.6612 39.4269 75.5814 35.4187 77.4219 31.9754C79.2623 28.5322 81.82 25.8421 85.0949 23.9053C88.3698 21.9684 92.1589 21 96.4623 21C100.874 21 104.717 21.9819 107.992 23.9456C111.267 25.9094 113.811 28.6263 115.624 32.0965C117.438 35.5398 118.344 39.5076 118.344 44C118.344 48.5193 117.424 52.514 115.584 55.9842C113.77 59.4275 111.226 62.131 107.951 64.0947C104.677 66.0316 100.847 67 96.4623 67ZM96.4623 57.8807C100.36 57.8807 103.256 56.5895 105.15 54.007C107.045 51.4246 107.992 48.0889 107.992 44C107.992 39.7766 107.031 36.414 105.11 33.9123C103.188 31.3836 100.306 30.1193 96.4623 30.1193C93.8369 30.1193 91.6717 30.7111 89.9666 31.8947C88.2886 33.0515 87.0436 34.6789 86.2316 36.7772C85.4196 38.8485 85.0137 41.2561 85.0137 44C85.0137 48.2234 85.9745 51.5994 87.8961 54.1281C89.8448 56.6298 92.7002 57.8807 96.4623 57.8807Z" fill="#F1F3F9"/>
<path d="M127.442 65.7895C125.685 65.7895 124.134 64.6427 123.618 62.9629L112.69 27.3491C111.897 24.764 113.844 22.153 116.548 22.1758L117.737 22.1858C119.483 22.2005 121.017 23.3452 121.528 25.0141L125.438 37.7769C126.591 41.5403 131.915 41.5508 133.082 37.7921L137.049 25.0237C137.569 23.3506 139.117 22.2105 140.869 22.2105H143.215C144.969 22.2105 146.518 23.3531 147.036 25.0288L150.982 37.7871C152.145 41.5474 157.468 41.5438 158.626 37.782L162.55 25.0338C163.066 23.3557 164.617 22.2105 166.373 22.2105H167.586C170.276 22.2105 172.2 24.8139 171.409 27.3859L160.471 62.9649C159.955 64.6437 158.404 65.7895 156.648 65.7895H154.858C153.134 65.7895 151.604 64.6851 151.061 63.049L145.828 47.2757C144.615 43.6194 139.442 43.6225 138.234 47.2803L133.025 63.0444C132.484 64.6829 130.953 65.7895 129.227 65.7895H127.442Z" fill="#F1F3F9"/>
</g>
<defs>
<filter id="filter0_d_22_983" x="0.422791" y="0" width="192.165" height="88" filterUnits="userSpaceOnUse" color-interpolation-filters="sRGB">
<feFlood flood-opacity="0" result="BackgroundImageFix"/>
<feColorMatrix in="SourceAlpha" type="matrix" values="0 0 0 0 0 0 0 0 0 0 0 0 0 0 0 0 0 0 127 0" result="hardAlpha"/>
<feOffset/>
<feGaussianBlur stdDeviation="10.5"/>
<feComposite in2="hardAlpha" operator="out"/>
<feColorMatrix type="matrix" values="0 0 0 0 1 0 0 0 0 1 0 0 0 0 1 0 0 0 0.5 0"/>
<feBlend mode="normal" in2="BackgroundImageFix" result="effect1_dropShadow_22_983"/>
<feBlend mode="normal" in="SourceGraphic" in2="effect1_dropShadow_22_983" result="shape"/>
</filter>
</defs>
</svg>
