<?xml version="1.0" standalone="no"?>
<!DOCTYPE svg PUBLIC "-//W3C//DTD SVG 20010904//EN"
 "http://www.w3.org/TR/2001/REC-SVG-20010904/DTD/svg10.dtd">
<svg version="1.0" xmlns="http://www.w3.org/2000/svg"
 width="976.000000pt" height="976.000000pt" viewBox="0 0 976.000000 976.000000"
 preserveAspectRatio="xMidYMid meet">
<metadata>
Created by potrace 1.14, written by Peter Selinger 2001-2017
</metadata>
<g transform="translate(0.000000,976.000000) scale(0.100000,-0.100000)"
fill="#000000" stroke="none">
<path d="M4738 9745 c-2 -2 -19 -7 -38 -10 -67 -11 -163 -66 -225 -130 -33
-34 -105 -126 -160 -204 -87 -124 -134 -189 -162 -226 -5 -5 -33 -45 -63 -88
-30 -43 -66 -93 -80 -112 -14 -18 -32 -43 -40 -55 -8 -12 -37 -53 -65 -91 -27
-37 -81 -112 -120 -166 -38 -54 -73 -99 -77 -101 -4 -2 -8 -10 -8 -17 0 -7 -3
-15 -7 -17 -9 -4 -113 -146 -113 -154 0 -3 -6 -11 -12 -18 -16 -15 -31 -35
-109 -146 -33 -47 -69 -96 -79 -110 -10 -14 -41 -56 -69 -95 -27 -38 -55 -75
-61 -82 -5 -7 -10 -17 -10 -23 0 -5 -4 -10 -10 -10 -5 0 -10 -6 -10 -14 0 -8
-3 -16 -7 -18 -13 -5 -123 -156 -123 -168 0 -5 -4 -10 -8 -10 -4 0 -16 -14
-26 -31 -10 -18 -25 -39 -33 -48 -8 -9 -44 -56 -78 -106 -35 -49 -75 -106 -90
-125 -48 -65 -141 -195 -189 -264 -27 -38 -53 -74 -58 -80 -5 -6 -48 -65 -95
-131 -106 -148 -255 -357 -265 -370 -14 -18 -83 -113 -98 -135 -8 -12 -72
-101 -142 -198 -70 -97 -144 -201 -165 -230 -21 -30 -44 -61 -51 -70 -7 -9
-34 -47 -60 -83 -26 -37 -55 -77 -65 -90 -140 -189 -372 -522 -391 -562 -14
-29 -29 -70 -33 -92 -9 -45 -9 -189 -1 -220 16 -57 48 -125 79 -170 79 -114
233 -330 239 -335 4 -3 10 -12 13 -20 4 -8 27 -42 51 -75 25 -33 71 -98 103
-144 32 -46 62 -89 68 -96 5 -6 15 -18 20 -27 6 -9 62 -89 125 -178 135 -189
205 -288 222 -314 15 -21 58 -79 87 -118 12 -14 21 -31 21 -36 0 -6 4 -12 8
-14 5 -1 23 -25 42 -53 19 -27 38 -54 43 -60 4 -5 39 -55 77 -110 38 -55 75
-107 83 -115 8 -8 20 -25 26 -38 7 -13 19 -31 26 -40 41 -51 85 -113 85 -121
0 -5 4 -11 8 -13 5 -1 44 -54 88 -116 135 -192 157 -224 227 -322 76 -107 67
-95 178 -250 45 -63 112 -158 149 -210 36 -52 113 -160 170 -240 57 -80 114
-161 127 -180 13 -19 30 -44 38 -55 55 -71 85 -115 85 -122 0 -5 9 -15 20 -23
11 -8 20 -18 20 -23 0 -11 101 -150 112 -155 5 -2 8 -9 8 -16 0 -6 13 -27 28
-46 16 -19 48 -64 73 -100 24 -36 47 -67 52 -68 4 -2 7 -10 7 -17 0 -7 4 -15
8 -17 7 -3 183 -249 306 -427 28 -40 65 -88 82 -107 17 -18 29 -36 26 -39 -3
-3 -1 -5 5 -5 5 0 21 -9 34 -21 77 -67 176 -102 289 -103 113 0 135 4 221 46
90 43 139 91 244 234 43 60 82 111 85 114 3 3 22 27 41 55 18 27 39 55 44 62
22 28 47 61 85 113 21 30 46 64 54 75 9 11 48 63 86 115 39 52 77 103 85 113
8 9 15 20 15 24 0 3 7 13 16 22 13 13 294 392 359 485 11 15 27 36 35 45 8 9
29 37 45 61 17 25 40 56 53 70 12 14 22 28 22 32 0 3 6 13 13 20 7 7 44 56 82
108 38 52 72 97 75 100 3 3 19 25 35 50 17 24 37 52 45 61 8 9 23 27 32 40 19
27 184 252 232 316 17 23 39 52 48 65 45 62 300 405 313 421 8 9 15 21 15 26
0 5 3 11 8 13 4 1 51 63 105 137 54 73 103 138 108 145 6 6 39 52 75 101 35
50 70 97 77 105 7 8 23 31 36 50 14 19 31 42 38 50 7 8 55 72 106 141 245 335
349 474 359 480 5 3 10 10 10 15 0 5 9 20 20 34 20 26 90 120 238 320 47 63
97 138 112 167 71 133 70 301 -2 444 -13 24 -26 46 -29 49 -4 3 -23 28 -42 55
-18 28 -36 52 -39 55 -3 3 -18 23 -35 45 -16 22 -37 49 -47 59 -10 11 -18 23
-18 27 0 4 -6 14 -12 21 -7 7 -37 45 -65 83 -29 39 -56 75 -61 80 -4 6 -61 82
-127 170 -66 88 -124 165 -130 172 -5 7 -15 19 -22 27 -6 7 -9 17 -6 20 4 3 2
6 -3 6 -6 0 -32 30 -59 68 -27 37 -52 69 -55 72 -3 3 -18 23 -33 46 -15 22
-35 49 -45 60 -9 10 -29 37 -45 60 -15 22 -36 50 -47 62 -11 12 -20 24 -20 26
0 6 -24 37 -47 61 -7 7 -9 15 -6 19 4 3 2 6 -4 6 -6 0 -23 19 -39 42 -16 24
-35 49 -41 58 -7 8 -53 69 -102 135 -50 66 -99 131 -110 145 -17 22 -214 285
-263 352 -67 92 -228 306 -240 318 -7 9 -22 29 -32 45 -11 16 -30 41 -43 55
-13 14 -23 28 -23 32 0 3 -6 13 -13 20 -10 11 -182 238 -252 334 -11 15 -38
51 -60 79 -22 29 -49 65 -60 80 -11 16 -38 52 -60 80 -22 29 -49 65 -60 80
-11 16 -38 52 -60 80 -22 29 -49 65 -60 80 -47 65 -224 301 -236 315 -8 9 -23
29 -33 45 -11 16 -30 41 -43 55 -13 14 -23 28 -23 32 0 3 -6 13 -12 20 -7 7
-37 45 -65 83 -29 39 -56 75 -60 80 -5 6 -28 37 -52 70 -25 33 -48 62 -53 63
-4 2 -8 10 -8 17 0 7 -3 15 -7 17 -5 2 -32 35 -60 73 -29 39 -56 75 -60 80 -5
6 -21 28 -38 50 -28 38 -92 105 -100 105 -2 0 -24 14 -48 30 -25 17 -52 30
-60 30 -9 0 -18 4 -21 9 -11 17 -224 40 -238 26z"/>
</g>
</svg>
