<svg width="65" height="65" viewBox="0 0 65 65" fill="none" xmlns="http://www.w3.org/2000/svg">
<path d="M35.1602 2.71712C35.1602 1.99765 35.446 1.30764 35.9548 0.79889C36.4635 0.290143 37.1535 0.00433224 37.873 0.00433224C45.0653 0.0122308 51.9608 2.87288 57.0466 7.95863C62.1323 13.0444 64.993 19.9399 65.0009 27.1322C65.0009 27.8517 64.715 28.5417 64.2063 29.0505C63.6976 29.5592 63.0075 29.845 62.2881 29.845C61.5686 29.845 60.8786 29.5592 60.3698 29.0505C59.8611 28.5417 59.5753 27.8517 59.5753 27.1322C59.5688 21.3784 57.2803 15.8621 53.2117 11.7935C49.1431 7.72494 43.6268 5.43637 37.873 5.42991C37.1535 5.42991 36.4635 5.1441 35.9548 4.63535C35.446 4.12661 35.1602 3.4366 35.1602 2.71712ZM37.873 16.2811C40.7509 16.2811 43.5109 17.4243 45.5459 19.4593C47.5809 21.4943 48.7241 24.2543 48.7241 27.1322C48.7241 27.8517 49.0099 28.5417 49.5187 29.0505C50.0274 29.5592 50.7174 29.845 51.4369 29.845C52.1564 29.845 52.8464 29.5592 53.3552 29.0505C53.8639 28.5417 54.1497 27.8517 54.1497 27.1322C54.1454 22.8167 52.4292 18.6791 49.3776 15.6276C46.3261 12.576 42.1885 10.8598 37.873 10.8555C37.1535 10.8555 36.4635 11.1413 35.9548 11.65C35.446 12.1588 35.1602 12.8488 35.1602 13.5683C35.1602 14.2878 35.446 14.9778 35.9548 15.4865C36.4635 15.9953 37.1535 16.2811 37.873 16.2811ZM62.5404 45.4137C64.1124 46.9902 64.9953 49.1257 64.9953 51.352C64.9953 53.5784 64.1124 55.7139 62.5404 57.2903L60.0717 60.136C37.854 81.407 -16.2118 27.3547 4.73089 5.0664L7.85059 2.35361C9.42881 0.825432 11.5452 -0.0199497 13.742 0.000357572C15.9387 0.0206649 18.0391 0.905028 19.5888 2.46212C19.6729 2.54622 24.6997 9.0759 24.6997 9.0759C26.1913 10.6429 27.0216 12.7244 27.0181 14.8878C27.0145 17.0512 26.1774 19.13 24.6807 20.6921L21.5393 24.6419C23.2778 28.866 25.8338 32.705 29.0605 35.9382C32.2872 39.1714 36.121 41.7352 40.3416 43.4822L44.3159 40.3218C45.8782 38.8263 47.9566 37.9902 50.1193 37.9871C52.282 37.9841 54.3628 38.8144 55.9293 40.3055C55.9293 40.3055 62.4563 45.3296 62.5404 45.4137ZM58.8076 49.3581C58.8076 49.3581 52.3159 44.3639 52.2318 44.2798C51.6729 43.7256 50.9177 43.4147 50.1307 43.4147C49.3437 43.4147 48.5885 43.7256 48.0297 44.2798C47.9564 44.3557 42.4847 48.7152 42.4847 48.7152C42.116 49.0087 41.6772 49.2011 41.2115 49.2734C40.7458 49.3457 40.2693 49.2954 39.8289 49.1275C34.3612 47.0918 29.3948 43.9047 25.2662 39.7822C21.1376 35.6597 17.9432 30.698 15.8994 25.2333C15.7182 24.7869 15.6591 24.3003 15.7283 23.8235C15.7974 23.3468 15.9922 22.897 16.2928 22.5205C16.2928 22.5205 20.6522 17.0461 20.7255 16.9755C21.2796 16.4167 21.5905 15.6615 21.5905 14.8745C21.5905 14.0875 21.2796 13.3323 20.7255 12.7734C20.6414 12.692 15.6471 6.19492 15.6471 6.19492C15.0799 5.68629 14.3396 5.41389 13.578 5.43356C12.8163 5.45324 12.0911 5.76348 11.5508 6.30072L8.43113 9.01351C-6.87441 27.4171 39.9781 71.6708 56.1056 56.4304L58.577 53.5819C59.1561 53.0455 59.5039 52.3049 59.547 51.5167C59.59 50.7285 59.3249 49.9544 58.8076 49.3581Z" fill="currentColor"/>
</svg>
