<svg width="78" height="65" viewBox="0 0 78 65" fill="none" xmlns="http://www.w3.org/2000/svg">
<path d="M68.2014 33.878V29.25C68.2014 21.4924 65.1198 14.0526 59.6343 8.56713C54.1489 3.08169 46.709 0 38.9514 0C31.1939 0 23.754 3.08169 18.2686 8.56713C12.7831 14.0526 9.70144 21.4924 9.70144 29.25V33.878C6.29271 35.379 3.50304 38.0053 1.79946 41.3175C0.0958772 44.6296 -0.418213 48.4264 0.343251 52.0723C1.10471 55.7182 3.09551 58.9918 5.98237 61.3452C8.86922 63.6986 12.4769 64.9889 16.2014 65C17.9253 65 19.5786 64.3152 20.7976 63.0962C22.0166 61.8772 22.7014 60.2239 22.7014 58.5V39C22.7014 37.2761 22.0166 35.6228 20.7976 34.4038C19.5786 33.1848 17.9253 32.5 16.2014 32.5V29.25C16.2014 23.2163 18.5983 17.4298 22.8648 13.1633C27.1312 8.89687 32.9178 6.5 38.9514 6.5C44.9851 6.5 50.7717 8.89687 55.0381 13.1633C59.3046 17.4298 61.7014 23.2163 61.7014 29.25V32.5C59.9775 32.5 58.3242 33.1848 57.1052 34.4038C55.8863 35.6228 55.2014 37.2761 55.2014 39V58.5H45.4514C44.5895 58.5 43.7628 58.8424 43.1533 59.4519C42.5438 60.0614 42.2014 60.888 42.2014 61.75C42.2014 62.612 42.5438 63.4386 43.1533 64.0481C43.7628 64.6576 44.5895 65 45.4514 65H61.7014C65.426 64.9889 69.0337 63.6986 71.9205 61.3452C74.8074 58.9918 76.7982 55.7182 77.5596 52.0723C78.3211 48.4264 77.807 44.6296 76.1034 41.3175C74.3998 38.0053 71.6102 35.379 68.2014 33.878ZM16.2014 58.5C13.6156 58.5 11.1356 57.4728 9.30715 55.6443C7.47867 53.8158 6.45144 51.3359 6.45144 48.75C6.45144 46.1641 7.47867 43.6842 9.30715 41.8557C11.1356 40.0272 13.6156 39 16.2014 39V58.5ZM61.7014 58.5V39C64.2873 39 66.7673 40.0272 68.5957 41.8557C70.4242 43.6842 71.4514 46.1641 71.4514 48.75C71.4514 51.3359 70.4242 53.8158 68.5957 55.6443C66.7673 57.4728 64.2873 58.5 61.7014 58.5Z" fill="currentColor"/>
</svg>
