<svg width="65" height="65" viewBox="0 0 65 65" fill="none" xmlns="http://www.w3.org/2000/svg">
<path d="M32.5 65C26.0721 65 19.7886 63.0939 14.444 59.5228C9.09938 55.9516 4.93378 50.8758 2.47393 44.9372C0.0140818 38.9986 -0.629527 32.464 0.624493 26.1596C1.87851 19.8552 4.97384 14.0642 9.51904 9.51904C14.0642 4.97384 19.8552 1.87851 26.1596 0.624493C32.464 -0.629527 38.9986 0.0140818 44.9372 2.47393C50.8758 4.93378 55.9516 9.09938 59.5228 14.444C63.0939 19.7886 65 26.0721 65 32.5C64.9907 41.1167 61.5636 49.3778 55.4707 55.4707C49.3778 61.5636 41.1167 64.9907 32.5 65ZM32.5 5.41668C27.1434 5.41668 21.9071 7.00509 17.4533 9.98104C12.9995 12.957 9.52815 17.1868 7.47828 22.1357C5.4284 27.0845 4.89206 32.5301 5.93708 37.7837C6.9821 43.0374 9.56153 47.8631 13.3492 51.6508C17.1369 55.4385 21.9627 58.0179 27.2163 59.0629C32.47 60.108 37.9155 59.5716 42.8643 57.5217C47.8132 55.4719 52.043 52.0005 55.019 47.5467C57.9949 43.0929 59.5833 37.8566 59.5833 32.5C59.5755 25.3195 56.7195 18.4353 51.6421 13.3579C46.5647 8.28051 39.6805 5.42457 32.5 5.41668ZM21.6667 37.9167C21.244 37.9148 20.8268 38.0118 20.4483 38.2001C20.0699 38.3883 19.7408 38.6626 19.4873 39.0008C19.2338 39.339 19.063 39.7319 18.9886 40.148C18.9141 40.564 18.9381 40.9917 19.0586 41.3969C20.0289 44.2338 21.8329 46.7119 24.2344 48.507C26.636 50.3022 29.5234 51.3308 32.519 51.4583C35.5159 51.3401 38.4062 50.3149 40.8078 48.5184C43.2094 46.7218 45.009 44.2384 45.9685 41.3969C46.077 40.9923 46.092 40.5684 46.0127 40.1571C45.9333 39.7459 45.7615 39.358 45.5104 39.0229C45.2592 38.6877 44.9351 38.414 44.5627 38.2223C44.1903 38.0307 43.7792 37.9262 43.3604 37.9167H21.6667ZM16.25 27.0833C16.25 29.7917 18.674 29.7917 21.6667 29.7917C24.6594 29.7917 27.0833 29.7917 27.0833 27.0833C27.0833 25.6468 26.5127 24.269 25.4968 23.2532C24.481 22.2374 23.1033 21.6667 21.6667 21.6667C20.2301 21.6667 18.8523 22.2374 17.8365 23.2532C16.8207 24.269 16.25 25.6468 16.25 27.0833ZM37.9167 27.0833C37.9167 29.7917 40.3406 29.7917 43.3333 29.7917C46.326 29.7917 48.75 29.7917 48.75 27.0833C48.75 25.6468 48.1793 24.269 47.1635 23.2532C46.1477 22.2374 44.7699 21.6667 43.3333 21.6667C41.8968 21.6667 40.519 22.2374 39.5032 23.2532C38.4874 24.269 37.9167 25.6468 37.9167 27.0833Z" fill="currentColor"/>
</svg>
