<svg width="66" height="60" viewBox="0 0 66 60" fill="none" xmlns="http://www.w3.org/2000/svg">
<path d="M63 41.9507H56.46C56.8093 40.9898 56.9919 39.9764 57 38.9542V23.9718C57 21.5877 56.0518 19.3012 54.364 17.6153C52.6761 15.9295 50.3869 14.9824 48 14.9824H30C27.6131 14.9824 25.3239 15.9295 23.636 17.6153C21.9482 19.3012 21 21.5877 21 23.9718V38.9542C21.0081 39.9764 21.1907 40.9898 21.54 41.9507H18C17.2044 41.9507 16.4413 41.635 15.8787 41.073C15.3161 40.5111 15 39.7489 15 38.9542V8.98943C15 6.60528 14.0518 4.31879 12.364 2.63294C10.6761 0.947098 8.38695 0 6 0H3C2.20435 0 1.44129 0.315699 0.87868 0.877647C0.31607 1.4396 0 2.20176 0 2.99648C0 3.79119 0.31607 4.55336 0.87868 5.1153C1.44129 5.67725 2.20435 5.99295 3 5.99295H6C6.79565 5.99295 7.55871 6.30865 8.12132 6.8706C8.68393 7.43255 9 8.19471 9 8.98943V38.9542C9.01106 40.9225 9.66864 42.8329 10.8718 44.3918C12.0749 45.9508 13.7571 47.0723 15.66 47.584C15.1075 48.9341 14.8922 50.3981 15.0326 51.8499C15.173 53.3016 15.665 54.6974 16.466 55.9168C17.2671 57.1362 18.3531 58.1427 19.6305 58.8493C20.9079 59.5559 22.3382 59.9415 23.7981 59.9727C25.2579 60.004 26.7035 59.68 28.01 59.0287C29.3165 58.3773 30.4447 57.4183 31.2973 56.2343C32.15 55.0502 32.7013 53.6768 32.9039 52.2324C33.1064 50.788 32.9541 49.3161 32.46 47.9436H42.54C42.0466 49.3014 41.8881 50.758 42.0778 52.1899C42.2675 53.6219 42.7999 54.9871 43.63 56.17C44.46 57.3529 45.5631 58.3185 46.8461 58.9852C48.129 59.6519 49.5538 60 51 60C52.4462 60 53.871 59.6519 55.1539 58.9852C56.4369 58.3185 57.54 57.3529 58.37 56.17C59.2001 54.9871 59.7325 53.6219 59.9222 52.1899C60.1119 50.758 59.9534 49.3014 59.46 47.9436H63C63.7957 47.9436 64.5587 47.6279 65.1213 47.066C65.6839 46.504 66 45.7419 66 44.9471C66 44.1524 65.6839 43.3903 65.1213 42.8283C64.5587 42.2664 63.7957 41.9507 63 41.9507ZM24 53.9366C23.4067 53.9366 22.8266 53.7608 22.3333 53.4316C21.8399 53.1023 21.4554 52.6343 21.2284 52.0868C21.0013 51.5393 20.9419 50.9368 21.0576 50.3555C21.1734 49.7742 21.4591 49.2403 21.8787 48.8213C22.2982 48.4022 22.8328 48.1168 23.4147 48.0012C23.9967 47.8856 24.5999 47.9449 25.1481 48.1717C25.6962 48.3985 26.1648 48.7826 26.4944 49.2753C26.8241 49.7681 27 50.3474 27 50.9401C27 51.7348 26.6839 52.497 26.1213 53.0589C25.5587 53.6209 24.7956 53.9366 24 53.9366ZM30 41.9507C29.2044 41.9507 28.4413 41.635 27.8787 41.073C27.3161 40.5111 27 39.7489 27 38.9542V23.9718C27 23.1771 27.3161 22.4149 27.8787 21.853C28.4413 21.291 29.2044 20.9753 30 20.9753H48C48.7957 20.9753 49.5587 21.291 50.1213 21.853C50.6839 22.4149 51 23.1771 51 23.9718V38.9542C51 39.7489 50.6839 40.5111 50.1213 41.073C49.5587 41.635 48.7957 41.9507 48 41.9507H30ZM51 53.9366C50.4067 53.9366 49.8266 53.7608 49.3333 53.4316C48.8399 53.1023 48.4554 52.6343 48.2284 52.0868C48.0013 51.5393 47.9419 50.9368 48.0576 50.3555C48.1734 49.7742 48.4591 49.2403 48.8787 48.8213C49.2982 48.4022 49.8328 48.1168 50.4147 48.0012C50.9967 47.8856 51.5999 47.9449 52.148 48.1717C52.6962 48.3985 53.1648 48.7826 53.4944 49.2753C53.8241 49.7681 54 50.3474 54 50.9401C54 51.7348 53.6839 52.497 53.1213 53.0589C52.5587 53.6209 51.7957 53.9366 51 53.9366Z" fill="#C7C7C7"/>
</svg>