<svg width="12" height="22" viewBox="0 0 12 22" fill="none" xmlns="http://www.w3.org/2000/svg">
<path d="M7.656 3.66667C8.35324 3.66739 9.02172 3.96393 9.51474 4.49118C10.0078 5.01844 10.285 5.73335 10.2857 6.479C10.2857 6.72212 10.376 6.95527 10.5368 7.12718C10.6975 7.29909 10.9155 7.39567 11.1429 7.39567C11.3702 7.39567 11.5882 7.29909 11.7489 7.12718C11.9097 6.95527 12 6.72212 12 6.479V6.41667C12 6.39925 12 6.38367 12 6.36625C11.9714 5.15417 11.5013 4.00197 10.6898 3.15522C9.87834 2.30847 8.78974 1.83414 7.656 1.83333H6.85714V0.916667C6.85714 0.673552 6.76684 0.440394 6.60609 0.268485C6.44535 0.0965771 6.22733 0 6 0C5.77267 0 5.55465 0.0965771 5.39391 0.268485C5.23316 0.440394 5.14286 0.673552 5.14286 0.916667V1.83333H4.344C3.31313 1.83451 2.31625 2.22771 1.53154 2.94266C0.746828 3.65761 0.225437 4.64771 0.0605597 5.73597C-0.104317 6.82424 0.0980664 7.93974 0.631536 8.8831C1.16501 9.82646 1.99479 10.5362 2.97257 10.8854L5.14286 11.66V18.3333H4.344C3.64677 18.3326 2.97828 18.0361 2.48526 17.5088C1.99224 16.9816 1.71497 16.2667 1.71429 15.521C1.71429 15.2779 1.62398 15.0447 1.46323 14.8728C1.30249 14.7009 1.08447 14.6043 0.857143 14.6043C0.629814 14.6043 0.411797 14.7009 0.251051 14.8728C0.090306 15.0447 0 15.2779 0 15.521V15.5833C0 15.6007 0 15.6163 0 15.6338C0.0286057 16.8458 0.498739 17.998 1.3102 18.8448C2.12166 19.6915 3.21026 20.1659 4.344 20.1667H5.14286V21.0833C5.14286 21.3264 5.23316 21.5596 5.39391 21.7315C5.55465 21.9034 5.77267 22 6 22C6.22733 22 6.44535 21.9034 6.60609 21.7315C6.76684 21.5596 6.85714 21.3264 6.85714 21.0833V20.1667H7.656C8.68687 20.1655 9.68375 19.7723 10.4685 19.0573C11.2532 18.3424 11.7746 17.3523 11.9394 16.264C12.1043 15.1758 11.9019 14.0603 11.3685 13.1169C10.835 12.1735 10.0052 11.4638 9.02743 11.1146L6.85714 10.34V3.66667H7.656ZM8.48743 12.8526C9.08008 13.0635 9.58317 13.4932 9.90662 14.0646C10.2301 14.6361 10.3528 15.312 10.2527 15.9714C10.1527 16.6307 9.8365 17.2305 9.36071 17.6633C8.88491 18.0961 8.28061 18.3336 7.656 18.3333H6.85714V12.2714L8.48743 12.8526ZM5.14286 9.72858L3.51429 9.14742C2.92178 8.93652 2.41878 8.50701 2.09532 7.93575C1.77185 7.3645 1.64903 6.68878 1.74883 6.02954C1.84863 5.37029 2.16454 4.77054 2.64003 4.33762C3.11551 3.90469 3.71953 3.66686 4.344 3.66667H5.14286V9.72858Z" fill="currentColor"/>
</svg>
