<svg viewBox="0 0 48 48" fill="#000" xmlns="http://www.w3.org/2000/svg">
	<path fill-rule="evenodd" clip-rule="evenodd" d="M45 46H0V45H45V46Z"/>
	<path fill-rule="evenodd" clip-rule="evenodd" d="M21 4H1V3H21V4Z"/>
	<path fill-rule="evenodd" clip-rule="evenodd" d="M0.999998 45L1 4L2 4L2 45L0.999998 45Z"/>
	<path fill-rule="evenodd" clip-rule="evenodd" d="M20 45L20 4L21 4L21 45L20 45Z"/>
	<path fill-rule="evenodd" clip-rule="evenodd" d="M44 37H25V36H44V37Z"/>
	<path fill-rule="evenodd" clip-rule="evenodd" d="M44 41H25V40H44V41Z"/>
	<path fill-rule="evenodd" clip-rule="evenodd" d="M24 41L24 36L25 36L25 41L24 41Z"/>
	<path fill-rule="evenodd" clip-rule="evenodd" d="M44 41L44 36L45 36L45 41L44 41Z"/>
	<path fill-rule="evenodd" clip-rule="evenodd" d="M41 45L41 41L42 41L42 45L41 45Z"/>
	<path fill-rule="evenodd" clip-rule="evenodd" d="M38 45L38 41L39 41L39 45L38 45Z"/>
	<path fill-rule="evenodd" clip-rule="evenodd" d="M30 45L30 41L31 41L31 45L30 45Z"/>
	<path fill-rule="evenodd" clip-rule="evenodd" d="M27 45L27 41L28 41L28 45L27 45Z"/>
	<path d="M42 21C42 22.1046 41.1046 23 40 23C38.8954 23 38 22.1046 38 21C38 19.8954 38.8954 19 40 19C41.1046 19 42 19.8954 42 21Z"/>
	<path fill-rule="evenodd" clip-rule="evenodd" d="M40 22C40.5523 22 41 21.5523 41 21C41 20.4477 40.5523 20 40 20C39.4477 20 39 20.4477 39 21C39 21.5523 39.4477 22 40 22ZM40 23C41.1046 23 42 22.1046 42 21C42 19.8954 41.1046 19 40 19C38.8954 19 38 19.8954 38 21C38 22.1046 38.8954 23 40 23Z"/>
	<path fill-rule="evenodd" clip-rule="evenodd" d="M39.2 22V6H40.7V22H39.2Z"/>
	<path fill-rule="evenodd" clip-rule="evenodd" d="M37 17L37 4L38 4L38 17L37 17Z"/>
	<path fill-rule="evenodd" clip-rule="evenodd" d="M42 17L42 4L43 4L43 17L42 17Z"/>
	<path fill-rule="evenodd" clip-rule="evenodd" d="M43 4H37V3H43V4Z"/>
	<path fill-rule="evenodd" clip-rule="evenodd" d="M14 24H17V25H14V24Z"/>
	<path fill-rule="evenodd" clip-rule="evenodd" d="M26.2767 23.0407C26.1994 23.0729 26.1433 23.1317 26.0401 23.2887C25.9657 23.4018 25.8269 23.5651 25.7317 23.6516C25.4889 23.872 25.3625 24.0256 25.231 24.2598C25.0808 24.5275 25.0278 24.7015 25.0058 24.9991C24.9613 25.6025 25.2052 26.1349 25.741 26.6037C26.044 26.8688 26.2019 27.2019 26.2 27.5716C26.1979 27.9599 26.0562 28.2472 25.7138 28.5575C25.2615 28.9674 25.0417 29.3799 25.0053 29.887C24.9621 30.4893 25.1803 30.9695 25.7315 31.4854C26.0718 31.8038 26.2021 32.0789 26.1986 32.4716C26.1954 32.832 26.0667 33.1096 25.7689 33.3992C25.6958 33.4702 25.628 33.5552 25.6181 33.588C25.5456 33.8283 25.8345 34.0613 26.111 33.9854C26.242 33.9494 26.497 33.7234 26.6523 33.5055C27.0144 32.9975 27.0984 32.3853 26.8821 31.8304C26.7576 31.5107 26.6016 31.299 26.2463 30.9672C25.8136 30.5631 25.6835 30.0612 25.8832 29.5663C25.9721 29.346 26.0475 29.2443 26.2997 29.0039C26.6861 28.6356 26.8659 28.3415 26.9613 27.9219C27.0579 27.4965 26.9623 26.9967 26.7095 26.6057C26.5826 26.4096 26.4936 26.309 26.2402 26.0756C25.9699 25.8268 25.7838 25.4457 25.7822 25.1382C25.781 24.9058 25.889 24.5909 26.0384 24.3908C26.0777 24.3382 26.2073 24.2025 26.3264 24.0891C26.5622 23.8648 26.7442 23.6284 26.8159 23.4532C26.893 23.2651 26.8004 23.0913 26.5871 23.0241C26.4717 22.9877 26.3935 22.9919 26.2767 23.0407Z"/>
	<path fill-rule="evenodd" clip-rule="evenodd" d="M29.2767 23.0407C29.1994 23.0729 29.1433 23.1317 29.0401 23.2887C28.9657 23.4018 28.8269 23.5651 28.7317 23.6516C28.4889 23.872 28.3625 24.0256 28.231 24.2598C28.0808 24.5275 28.0278 24.7015 28.0058 24.9991C27.9613 25.6025 28.2052 26.1349 28.741 26.6037C29.044 26.8688 29.2019 27.2019 29.2 27.5716C29.1979 27.9599 29.0562 28.2472 28.7138 28.5575C28.2615 28.9674 28.0417 29.3799 28.0053 29.887C27.9621 30.4893 28.1803 30.9695 28.7315 31.4854C29.0718 31.8038 29.2021 32.0789 29.1986 32.4716C29.1954 32.832 29.0667 33.1096 28.7689 33.3992C28.6958 33.4702 28.628 33.5552 28.6181 33.588C28.5456 33.8283 28.8345 34.0613 29.111 33.9854C29.242 33.9494 29.497 33.7234 29.6523 33.5055C30.0144 32.9975 30.0984 32.3853 29.8821 31.8304C29.7576 31.5107 29.6016 31.299 29.2463 30.9672C28.8136 30.5631 28.6835 30.0612 28.8832 29.5663C28.9721 29.346 29.0475 29.2443 29.2997 29.0039C29.6861 28.6356 29.8659 28.3415 29.9613 27.9219C30.0579 27.4965 29.9623 26.9967 29.7095 26.6057C29.5826 26.4096 29.4936 26.309 29.2402 26.0756C28.9699 25.8268 28.7838 25.4457 28.7822 25.1382C28.781 24.9058 28.889 24.5909 29.0384 24.3908C29.0777 24.3382 29.2073 24.2025 29.3264 24.0891C29.5622 23.8648 29.7442 23.6284 29.8159 23.4532C29.893 23.2651 29.8004 23.0913 29.5871 23.0241C29.4717 22.9877 29.3935 22.9919 29.2767 23.0407Z"/>
	<path fill-rule="evenodd" clip-rule="evenodd" d="M32.2767 23.0407C32.1994 23.0729 32.1433 23.1317 32.0401 23.2887C31.9657 23.4018 31.8269 23.5651 31.7317 23.6516C31.4889 23.872 31.3625 24.0256 31.231 24.2598C31.0808 24.5275 31.0278 24.7015 31.0058 24.9991C30.9613 25.6025 31.2052 26.1349 31.741 26.6037C32.044 26.8688 32.2019 27.2019 32.2 27.5716C32.1979 27.9599 32.0562 28.2472 31.7138 28.5575C31.2615 28.9674 31.0417 29.3799 31.0053 29.887C30.9621 30.4893 31.1803 30.9695 31.7315 31.4854C32.0718 31.8038 32.2021 32.0789 32.1986 32.4716C32.1954 32.832 32.0667 33.1096 31.7689 33.3992C31.6958 33.4702 31.628 33.5552 31.6181 33.588C31.5456 33.8283 31.8345 34.0613 32.111 33.9854C32.242 33.9494 32.497 33.7234 32.6523 33.5055C33.0144 32.9975 33.0984 32.3853 32.8821 31.8304C32.7576 31.5107 32.6016 31.299 32.2463 30.9672C31.8136 30.5631 31.6835 30.0612 31.8832 29.5663C31.9721 29.346 32.0475 29.2443 32.2997 29.0039C32.6861 28.6356 32.8659 28.3415 32.9613 27.9219C33.0579 27.4965 32.9623 26.9967 32.7095 26.6057C32.5826 26.4096 32.4936 26.309 32.2402 26.0756C31.9699 25.8268 31.7838 25.4457 31.7822 25.1382C31.781 24.9058 31.889 24.5909 32.0384 24.3908C32.0777 24.3382 32.2073 24.2025 32.3264 24.0891C32.5622 23.8648 32.7442 23.6284 32.8159 23.4532C32.893 23.2651 32.8004 23.0913 32.5871 23.0241C32.4717 22.9877 32.3935 22.9919 32.2767 23.0407Z"/>
	<path fill-rule="evenodd" clip-rule="evenodd" d="M38 16.416C36.2341 17.1876 35 18.9497 35 21C35 23.7614 37.2386 26 40 26C42.7614 26 45 23.7614 45 21C45 18.9497 43.7659 17.1876 42 16.416V17.5351C43.1956 18.2268 44 19.5194 44 21C44 23.2091 42.2091 25 40 25C37.7909 25 36 23.2091 36 21C36 19.5194 36.8044 18.2268 38 17.5351V16.416Z"/>
</svg>