<svg width="54" height="56" viewBox="0 0 54 56" fill="none" xmlns="http://www.w3.org/2000/svg">
<path d="M10.9535 54.5117V1.4884H43.0465V54.5117" stroke="#84A878" stroke-width="1.39535"/>
<path d="M39.279 54.5116V5.25574H14.7208V54.5116" stroke="#84A878" stroke-width="1.39535"/>
<path d="M27 21.8604C27.9248 21.8604 28.6745 21.1108 28.6745 20.186C28.6745 19.2613 27.9248 18.5116 27 18.5116C26.0753 18.5116 25.3256 19.2613 25.3256 20.186C25.3256 21.1108 26.0753 21.8604 27 21.8604Z" stroke="#84A878" stroke-width="1.39535"/>
<path d="M35.3721 33.3023C36.2969 33.3023 37.0465 32.5527 37.0465 31.6279C37.0465 30.7032 36.2969 29.9535 35.3721 29.9535C34.4474 29.9535 33.6977 30.7032 33.6977 31.6279C33.6977 32.5527 34.4474 33.3023 35.3721 33.3023Z" stroke="#84A878" stroke-width="1.39535"/>
<path d="M34.814 40C35.7387 40 36.4884 39.2503 36.4884 38.3255C36.4884 37.4008 35.7387 36.6511 34.814 36.6511C33.8892 36.6511 33.1395 37.4008 33.1395 38.3255C33.1395 39.2503 33.8892 40 34.814 40Z" stroke="#84A878" stroke-width="1.39535"/>
<path d="M35.3721 31.6279H30.3488M53.5116 54.5116H0.488342" stroke="#84A878" stroke-width="1.39535"/>
</svg>
