<svg viewBox="0 0 48 48" fill="#000" xmlns="http://www.w3.org/2000/svg">
<path fill-rule="evenodd" clip-rule="evenodd" d="M39 1H9V0H39V1Z"/>
<path fill-rule="evenodd" clip-rule="evenodd" d="M9 47L9 1L10 1L10 47L9 47Z"/>
<path fill-rule="evenodd" clip-rule="evenodd" d="M38 47L38 -4.37114e-08L39 0L39 47L38 47Z"/>
<path fill-rule="evenodd" clip-rule="evenodd" d="M48 48H0V47H48V48Z"/>
<path fill-rule="evenodd" clip-rule="evenodd" d="M32 8H15V7H32V8Z"/>
<path fill-rule="evenodd" clip-rule="evenodd" d="M32 14H15V13H32V14Z"/>
<path fill-rule="evenodd" clip-rule="evenodd" d="M15 13L15 8L16 8L16 13L15 13Z"/>
<path fill-rule="evenodd" clip-rule="evenodd" d="M31 13L31 8L32 8L32 13L31 13Z"/>
<path fill-rule="evenodd" clip-rule="evenodd" d="M32 17H15V16H32V17Z"/>
<path fill-rule="evenodd" clip-rule="evenodd" d="M32 23H15V22H32V23Z"/>
<path fill-rule="evenodd" clip-rule="evenodd" d="M15 22L15 17L16 17L16 22L15 22Z"/>
<path fill-rule="evenodd" clip-rule="evenodd" d="M31 22L31 17L32 17L32 22L31 22Z"/>
<path fill-rule="evenodd" clip-rule="evenodd" d="M32 29H15V28H32V29Z"/>
<path fill-rule="evenodd" clip-rule="evenodd" d="M32 35H15V34H32V35Z"/>
<path fill-rule="evenodd" clip-rule="evenodd" d="M15 34L15 29L16 29L16 34L15 34Z"/>
<path fill-rule="evenodd" clip-rule="evenodd" d="M31 34L31 29L32 29L32 34L31 34Z"/>
<path fill-rule="evenodd" clip-rule="evenodd" d="M32 38H15V37H32V38Z"/>
<path fill-rule="evenodd" clip-rule="evenodd" d="M32 44H15V43H32V44Z"/>
<path fill-rule="evenodd" clip-rule="evenodd" d="M15 43L15 38L16 38L16 43L15 43Z"/>
<path fill-rule="evenodd" clip-rule="evenodd" d="M31 43L31 38L32 38L32 43L31 43Z"/>
<path fill-rule="evenodd" clip-rule="evenodd" d="M36 26H33V25H36V26Z"/>
</svg>