<svg viewBox="0 0 43 43" fill="#000" xmlns="http://www.w3.org/2000/svg">
	<g fill="currentColor">
		<path d="M9.8,0.4C9.8,0.2,10,0,10.3,0h22.5c0.2,0,0.4,0.2,0.4,0.4v42.1c0,0.2-0.2,0.4-0.4,0.4c-0.2,0-0.4-0.2-0.4-0.4V0.9H10.7v41.7c0,0.2-0.2,0.4-0.4,0.4s-0.4-0.2-0.4-0.4V0.4z"/>
		<path d="M13.9,26.4c-0.4,0-0.7,0.3-0.7,0.7s0.3,0.7,0.7,0.7s0.7-0.3,0.7-0.7S14.3,26.4,13.9,26.4z M12.3,27.1c0-0.9,0.7-1.6,1.6-1.6c0.9,0,1.6,0.7,1.6,1.6s-0.7,1.6-1.6,1.6C13,28.7,12.3,27.9,12.3,27.1z"/>
		<path d="M0,42.6c0-0.2,0.2-0.4,0.4-0.4h42.1c0.2,0,0.4,0.2,0.4,0.4c0,0.2-0.2,0.4-0.4,0.4H0.4C0.2,43,0,42.8,0,42.6z"/>
		<path d="M0,40c0-0.2,0.2-0.4,0.4-0.4h42.1c0.2,0,0.4,0.2,0.4,0.4c0,0.2-0.2,0.4-0.4,0.4H0.4C0.2,40.4,0,40.2,0,40z"/>
		<path d="M12.1,20.7c0-0.2,0.2-0.4,0.4-0.4h2.7c0.2,0,0.4,0.2,0.4,0.4v3.4c0,0.2-0.2,0.4-0.4,0.4h-2.7c-0.2,0-0.4-0.2-0.4-0.4V20.7z M13,21.2v2.6h1.8v-2.6H13z"/>
		<path d="M13.5,22.5c0-0.2,0.2-0.4,0.4-0.4h3.9c0.2,0,0.4,0.2,0.4,0.4c0,0.2-0.2,0.4-0.4,0.4h-3.9C13.6,22.9,13.5,22.7,13.5,22.5z"/>
	</g>
</svg>