<svg viewBox="0 0 43 43" fill="#000" xmlns="http://www.w3.org/2000/svg">
    <g fill="currentColor">
        <path d="M7.7,0.4C7.7,0.2,7.9,0,8.1,0h26.2c0.2,0,0.4,0.2,0.4,0.4v42.1c0,0.2-0.2,0.4-0.4,0.4s-0.4-0.2-0.4-0.4V0.9H8.6v41.7c0,0.2-0.2,0.4-0.4,0.4c-0.2,0-0.4-0.2-0.4-0.4V0.4z"/>
        <path d="M31.4,12.9c0.2,0,0.4,0.2,0.4,0.4v18.5c0,0.2-0.2,0.4-0.4,0.4c-0.2,0-0.4-0.2-0.4-0.4V13.4C31,13.1,31.2,12.9,31.4,12.9z"/>
        <path d="M31.4,36.2c0.2,0,0.4,0.2,0.4,0.4v5.9c0,0.2-0.2,0.4-0.4,0.4c-0.2,0-0.4-0.2-0.4-0.4v-5.9C31,36.4,31.2,36.2,31.4,36.2z"/>
        <path d="M10.6,2.8c0-0.2,0.2-0.4,0.4-0.4h20.4c0.2,0,0.4,0.2,0.4,0.4v5.7c0,0.2-0.2,0.4-0.4,0.4C31.2,9,31,8.8,31,8.6V3.3H11.4v39.3c0,0.2-0.2,0.4-0.4,0.4s-0.4-0.2-0.4-0.4V2.8z"/>
        <path d="M14,25.8c-0.4,0.1-0.7,0.4-0.6,0.8c0.1,0.4,0.4,0.7,0.8,0.6c0.4-0.1,0.7-0.4,0.6-0.8C14.7,26,14.4,25.7,14,25.8z M12.5,26.8c-0.1-0.9,0.4-1.7,1.3-1.8c0.9-0.1,1.7,0.4,1.8,1.3c0.1,0.9-0.4,1.7-1.3,1.8C13.5,28.2,12.7,27.6,12.5,26.8z"/>
        <path d="M14.1,19.7c-0.6,0-1.1,0.5-1.1,1.1c0,0.6,0.5,1.1,1.1,1.1s1.1-0.5,1.1-1.1C15.1,20.1,14.7,19.7,14.1,19.7z M12.1,20.7c0-1.1,0.9-1.9,1.9-1.9s1.9,0.9,1.9,1.9c0,1.1-0.9,1.9-1.9,1.9S12.1,21.8,12.1,20.7z"/>
        <path d="M13.6,20.7c0-0.2,0.2-0.4,0.4-0.4h4.4c0.2,0,0.4,0.2,0.4,0.4c0,0.2-0.2,0.4-0.4,0.4h-4.4C13.8,21.2,13.6,21,13.6,20.7z"/>
        <path d="M0,42.6c0-0.2,0.2-0.4,0.4-0.4h42.1c0.2,0,0.4,0.2,0.4,0.4c0,0.2-0.2,0.4-0.4,0.4H0.4C0.2,43,0,42.8,0,42.6z"/>
        <path d="M30.1,8.6c0-0.2,0.2-0.4,0.4-0.4h1.9c0.2,0,0.4,0.2,0.4,0.4v4.8c0,0.2-0.2,0.4-0.4,0.4h-1.9c-0.2,0-0.4-0.2-0.4-0.4V8.6z M30.9,9v3.9h1V9H30.9z"/>
        <path d="M30.1,31.9c0-0.2,0.2-0.4,0.4-0.4h1.9c0.2,0,0.4,0.2,0.4,0.4v4.8c0,0.2-0.2,0.4-0.4,0.4h-1.9c-0.2,0-0.4-0.2-0.4-0.4V31.9z M30.9,32.3v3.9h1v-3.9H30.9z"/>
        <path d="M10.6,16c0-0.2,0.2-0.4,0.4-0.4h5.8c0.2,0,0.4,0.2,0.4,0.4v3.2c0,0.2-0.2,0.4-0.4,0.4c-0.2,0-0.4-0.2-0.4-0.4v-2.8H11C10.8,16.5,10.6,16.3,10.6,16z"/>
        <path d="M16.8,22.3c0.2,0,0.4,0.2,0.4,0.4v7.2c0,0.2-0.2,0.4-0.4,0.4H11c-0.2,0-0.4-0.2-0.4-0.4c0-0.2,0.2-0.4,0.4-0.4h5.4v-6.8C16.4,22.5,16.6,22.3,16.8,22.3z"/>
    </g>
</svg>