<svg viewBox="0 0 48 48" fill="#000" xmlns="http://www.w3.org/2000/svg">
<path fill-rule="evenodd" clip-rule="evenodd" d="M48 47H0V46H48V47Z" fill="currentColor"/>
<path fill-rule="evenodd" clip-rule="evenodd" d="M8 46L8 1L9 1L9 46L8 46Z" fill="currentColor"/>
<path fill-rule="evenodd" clip-rule="evenodd" d="M39 46L39 1L40 1L40 46L39 46Z" fill="currentColor"/>
<path fill-rule="evenodd" clip-rule="evenodd" d="M40 2H8V1H40V2Z" fill="currentColor"/>
<path fill-rule="evenodd" clip-rule="evenodd" d="M23 7H13V6H23V7Z" fill="currentColor"/>
<path fill-rule="evenodd" clip-rule="evenodd" d="M23 23H13V22H23V23Z" fill="currentColor"/>
<path fill-rule="evenodd" clip-rule="evenodd" d="M13 23L13 6H14L14 23H13Z" fill="currentColor"/>
<path fill-rule="evenodd" clip-rule="evenodd" d="M22 23V6H23V23H22Z" fill="currentColor"/>
<path fill-rule="evenodd" clip-rule="evenodd" d="M35 7H25V6H35V7Z" fill="currentColor"/>
<path fill-rule="evenodd" clip-rule="evenodd" d="M35 23H25V22H35V23Z" fill="currentColor"/>
<path fill-rule="evenodd" clip-rule="evenodd" d="M25 23V6H26V23H25Z" fill="currentColor"/>
<path fill-rule="evenodd" clip-rule="evenodd" d="M34 23V6H35V23H34Z" fill="currentColor"/>
<path fill-rule="evenodd" clip-rule="evenodd" d="M35 29H25V28H35V29Z" fill="currentColor"/>
<path fill-rule="evenodd" clip-rule="evenodd" d="M35 44H25V43H35V44Z" fill="currentColor"/>
<path fill-rule="evenodd" clip-rule="evenodd" d="M25 44V28H26V44H25Z" fill="currentColor"/>
<path fill-rule="evenodd" clip-rule="evenodd" d="M34 44V28H35V44H34Z" fill="currentColor"/>
<path fill-rule="evenodd" clip-rule="evenodd" d="M23 29H13V28H23V29Z" fill="currentColor"/>
<path fill-rule="evenodd" clip-rule="evenodd" d="M23 44H13V43H23V44Z" fill="currentColor"/>
<path fill-rule="evenodd" clip-rule="evenodd" d="M13 44L13 28H14L14 44H13Z" fill="currentColor"/>
<path fill-rule="evenodd" clip-rule="evenodd" d="M22 44V28H23V44H22Z" fill="currentColor"/>
<path fill-rule="evenodd" clip-rule="evenodd" d="M36 26H32V25H36V26Z" fill="currentColor"/>
</svg>