<svg width="72" height="73" viewBox="0 0 72 73" fill="none" stroke="currentColor" xmlns="http://www.w3.org/2000/svg">
<path d="M57.3954 71.8755V0.683472H14.6047V71.8755" stroke-width="0.839161"/>
<path d="M19.2558 71.8756V4.80518H52.7442V71.8756" stroke-width="0.839161"/>
<path d="M23.5349 46.0216C24.7679 46.0216 25.7674 45.0151 25.7674 43.7734C25.7674 42.5318 24.7679 41.5253 23.5349 41.5253C22.3019 41.5253 21.3023 42.5318 21.3023 43.7734C21.3023 45.0151 22.3019 46.0216 23.5349 46.0216Z" stroke-width="0.839161"/>
<path d="M23.5349 43.7734H30.2326M0.651184 71.8755H71.3489M25.2093 39.6518V15.2966C25.2093 15.2966 27.814 10.4255 36.3721 10.4255C44.9303 10.4255 47.5349 15.2966 47.5349 15.2966V49.3938H25.2093V46.9583M36.3721 10.4255V49.3938M25.2093 24.664H47.721M25.2093 37.2162H47.721M24.8372 54.8269H47.3489V64.1943H24.8372V54.8269Z" stroke-width="0.839161"/>
</svg>
