<svg width="26" height="24" viewBox="0 0 26 24" fill="none" xmlns="http://www.w3.org/2000/svg">
<path d="M18.7627 0C17.5558 0.0187735 16.3751 0.3557 15.34 0.976755C14.3049 1.59781 13.452 2.481 12.8675 3.53714C12.283 2.481 11.4301 1.59781 10.395 0.976755C9.35988 0.3557 8.17924 0.0187735 6.97227 0C5.04822 0.0835951 3.23546 0.925287 1.93002 2.34119C0.624573 3.75709 -0.0674301 5.63211 0.00518898 7.55661C0.00518898 14.8185 11.7485 23.2058 12.248 23.5616L12.8675 24L13.487 23.5616C13.9865 23.2079 25.7298 14.8185 25.7298 7.55661C25.8024 5.63211 25.1104 3.75709 23.805 2.34119C22.4995 0.925287 20.6868 0.0835951 18.7627 0Z" fill="currentColor"/>
</svg>
