<svg width="10" height="11" viewBox="0 0 10 11" fill="none" xmlns="http://www.w3.org/2000/svg">
<path d="M7.08642 1.32895C6.73197 1.02267 6.35994 0.701703 5.98115 0.351396C5.83751 0.218807 5.66712 0.119741 5.48188 0.0611308C5.29665 0.00252104 5.10105 -0.0142153 4.90879 0.0120933C4.72245 0.0371863 4.54381 0.103576 4.38547 0.206574C4.22714 0.309571 4.09297 0.446663 3.99247 0.608166C3.45511 1.52145 3.07506 2.52133 2.8687 3.56468C2.78797 3.44582 2.71621 3.32089 2.65405 3.19099C2.59022 3.05426 2.4941 2.93571 2.37426 2.84593C2.25442 2.75614 2.11459 2.69792 1.96724 2.67644C1.81988 2.65497 1.66959 2.67091 1.52978 2.72285C1.38996 2.77479 1.26496 2.86111 1.16592 2.97411C0.409821 3.76019 -0.00930968 4.81877 0.000221989 5.91825C-0.0102347 7.04136 0.348998 8.13577 1.02077 9.02736C1.69254 9.91895 2.63826 10.5565 3.70747 10.8386C4.11685 10.9433 4.53716 10.9975 4.9593 11C4.41984 10.9796 3.90134 10.7824 3.48109 10.4379C3.18996 10.2295 2.94517 9.96127 2.7626 9.65052C2.58004 9.33976 2.46378 8.99345 2.42136 8.63405C2.31764 7.62073 2.82406 6.44096 3.92663 5.12777C4.0589 4.97012 4.22333 4.84362 4.40851 4.75708C4.59369 4.67054 4.79518 4.62602 4.99898 4.62661H5.00349C5.2067 4.62678 5.40743 4.67199 5.59169 4.7591C5.77596 4.84621 5.93933 4.97311 6.07043 5.13098C6.76399 5.96869 7.59148 7.21035 7.59148 8.36857C7.59048 9.03604 7.34049 9.67826 6.89197 10.1656C6.44344 10.653 5.82979 10.9492 5.17485 10.9945C6.46982 10.9521 7.69768 10.3988 8.59834 9.45173C9.49901 8.50471 10.0017 7.23839 10 5.921C9.99774 3.84392 8.6485 2.67929 7.08642 1.32895Z" fill="white"/>
</svg>
