<svg width="62" height="65" viewBox="0 0 62 65" fill="none" xmlns="http://www.w3.org/2000/svg">
<path d="M62 26.343V51.4608C61.9959 55.0503 60.6337 58.4916 58.2123 61.0297C55.7908 63.5679 52.5078 64.9957 49.0833 65H46.5C45.8149 65 45.1578 64.7147 44.6733 64.2069C44.1888 63.6991 43.9167 63.0103 43.9167 62.2922C43.9167 61.574 44.1888 60.8853 44.6733 60.3774C45.1578 59.8696 45.8149 59.5843 46.5 59.5843H49.0833C51.1388 59.5843 53.11 58.7285 54.5634 57.205C56.0168 55.6816 56.8333 53.6153 56.8333 51.4608V26.343C56.8334 25.0132 56.522 23.7038 55.9266 22.5296C55.3311 21.3554 54.4698 20.3524 53.4182 19.6086L35.3348 6.81954C34.057 5.90648 32.5465 5.41812 31 5.41812C29.4535 5.41812 27.943 5.90648 26.6652 6.81954L8.58184 19.6086C7.53022 20.3524 6.66888 21.3554 6.07342 22.5296C5.47796 23.7038 5.1666 25.0132 5.16668 26.343V51.4608C5.16668 53.6153 5.98319 55.6816 7.4366 57.205C8.89001 58.7285 10.8612 59.5843 12.9167 59.5843H15.5C16.1852 59.5843 16.8422 59.8696 17.3267 60.3774C17.8112 60.8853 18.0833 61.574 18.0833 62.2922C18.0833 63.0103 17.8112 63.6991 17.3267 64.2069C16.8422 64.7147 16.1852 65 15.5 65H12.9167C9.49222 64.9957 6.2092 63.5679 3.78774 61.0297C1.36629 58.4916 0.00411208 55.0503 1.01191e-05 51.4608V26.343C-0.00263747 24.1272 0.514297 21.9447 1.50533 19.9876C2.49636 18.0304 3.93111 16.3585 5.68334 15.119L23.7667 2.32725C25.8986 0.81074 28.4158 0 30.9923 0C33.5687 0 36.0859 0.81074 38.2178 2.32725L56.3012 15.119C58.0551 16.3579 59.4921 18.0292 60.4857 19.9862C61.4794 21.9432 61.9994 24.1261 62 26.343ZM49.0833 40.6485C49.09 43.1383 48.6253 45.6048 47.7163 47.9051C46.8072 50.2055 45.4719 52.2939 43.7875 54.0495L34.7071 63.3591C33.713 64.3679 32.3836 64.9319 31 64.9319C29.6164 64.9319 28.287 64.3679 27.2929 63.3591L18.2332 54.0712C16.1262 51.8696 14.57 49.1571 13.7025 46.1741C12.835 43.1912 12.683 40.03 13.2601 36.9708C13.8371 33.9115 15.1253 31.0488 17.0105 28.6363C18.8957 26.2238 21.3196 24.3362 24.0673 23.1406C26.8151 21.9451 29.8018 21.4786 32.7627 21.7826C35.7236 22.0866 38.5672 23.1516 41.0415 24.8832C43.5157 26.6149 45.5441 28.9596 46.9469 31.7097C48.3497 34.4597 49.0835 37.53 49.0833 40.6485ZM43.9167 40.6485C43.9167 38.422 43.3929 36.2299 42.3917 34.2663C41.3904 32.3027 39.9427 30.6283 38.1766 29.3912C36.4105 28.1542 34.3807 27.3928 32.2668 27.1744C30.153 26.9561 28.0203 27.2875 26.0579 28.1394C24.0954 28.9912 22.3637 30.3373 21.016 32.0582C19.6684 33.7792 18.7464 35.8219 18.3318 38.0056C17.9172 40.1892 18.0227 42.4463 18.6391 44.577C19.2554 46.7077 20.3636 48.6461 21.8653 50.2207L30.907 59.4869L40.1553 50.199C41.353 48.9464 42.302 47.4575 42.9476 45.8182C43.5932 44.179 43.9226 42.4219 43.9167 40.6485ZM38.75 40.6295C38.75 42.2362 38.2955 43.8068 37.4439 45.1427C36.5923 46.4786 35.3819 47.5198 33.9658 48.1347C32.5497 48.7495 30.9914 48.9104 29.4881 48.5969C27.9847 48.2835 26.6038 47.5098 25.5199 46.3737C24.4361 45.2376 23.698 43.7901 23.3989 42.2143C23.0999 40.6385 23.2534 39.0052 23.8399 37.5208C24.4265 36.0364 25.4199 34.7677 26.6943 33.8751C27.9688 32.9825 29.4672 32.506 31 32.506C33.0554 32.506 35.0267 33.3619 36.4801 34.8853C37.9335 36.4088 38.75 38.475 38.75 40.6295Z" fill="#F9C201"/>
</svg>
