<svg width="66" height="60" viewBox="0 0 66 60" fill="none" xmlns="http://www.w3.org/2000/svg">
<path d="M51 6H21C20.2044 6 19.4413 6.31607 18.8787 6.87868C18.3161 7.44129 18 8.20435 18 9V15H3C2.20435 15 1.44129 15.3161 0.87868 15.8787C0.31607 16.4413 0 17.2044 0 18C0 18.7956 0.31607 19.5587 0.87868 20.1213C1.44129 20.6839 2.20435 21 3 21H18V33C18 33.7956 18.3161 34.5587 18.8787 35.1213C19.4413 35.6839 20.2044 36 21 36C21.7956 36 22.5587 35.6839 23.1213 35.1213C23.6839 34.5587 24 33.7956 24 33V30H36V51C36 51.7956 36.3161 52.5587 36.8787 53.1213C37.4413 53.6839 38.2044 54 39 54H45C47.3869 54 49.6761 53.0518 51.364 51.364C53.0518 49.6761 54 47.3869 54 45V29.46C55.7506 28.8411 57.267 27.6958 58.3412 26.1812C59.4154 24.6666 59.9948 22.8568 60 21V15C60 12.6131 59.0518 10.3239 57.364 8.63604C55.6761 6.94821 53.3869 6 51 6V6ZM48 45C48 45.7956 47.6839 46.5587 47.1213 47.1213C46.5587 47.6839 45.7956 48 45 48H42V30H48V45ZM54 21C54 21.7956 53.6839 22.5587 53.1213 23.1213C52.5587 23.6839 51.7956 24 51 24H24V12H42V15C42 15.7956 42.3161 16.5587 42.8787 17.1213C43.4413 17.6839 44.2044 18 45 18C45.7956 18 46.5587 17.6839 47.1213 17.1213C47.6839 16.5587 48 15.7956 48 15V12H51C51.7956 12 52.5587 12.3161 53.1213 12.8787C53.6839 13.4413 54 14.2044 54 15V21Z" fill="currentColor"/>
</svg>