<svg width="66" height="60" viewBox="0 0 66 60" fill="none" xmlns="http://www.w3.org/2000/svg">
<path d="M47.6 14.1579H39.2V11.3684C39.2 9.14898 38.315 7.02044 36.7397 5.45105C35.1644 3.88167 33.0278 3 30.8 3H25.2C22.9722 3 20.8356 3.88167 19.2603 5.45105C17.685 7.02044 16.8 9.14898 16.8 11.3684V14.1579H8.4C6.17218 14.1579 4.03561 15.0396 2.4603 16.6089C0.884998 18.1783 0 20.3069 0 22.5263V47.6316C0 49.851 0.884998 51.9796 2.4603 53.549C4.03561 55.1183 6.17218 56 8.4 56H47.6C49.8278 56 51.9644 55.1183 53.5397 53.549C55.115 51.9796 56 49.851 56 47.6316V22.5263C56 20.3069 55.115 18.1783 53.5397 16.6089C51.9644 15.0396 49.8278 14.1579 47.6 14.1579ZM22.4 11.3684C22.4 10.6286 22.695 9.91909 23.2201 9.39597C23.7452 8.87284 24.4574 8.57895 25.2 8.57895H30.8C31.5426 8.57895 32.2548 8.87284 32.7799 9.39597C33.305 9.91909 33.6 10.6286 33.6 11.3684V14.1579H22.4V11.3684ZM50.4 47.6316C50.4 48.3714 50.105 49.0809 49.5799 49.604C49.0548 50.1272 48.3426 50.4211 47.6 50.4211H8.4C7.65739 50.4211 6.9452 50.1272 6.4201 49.604C5.895 49.0809 5.6 48.3714 5.6 47.6316V32.2895C8.33124 33.3687 11.1389 34.2452 14 34.9116V36.5574C14 37.2972 14.295 38.0067 14.8201 38.5298C15.3452 39.053 16.0574 39.3468 16.8 39.3468C17.5426 39.3468 18.2548 39.053 18.7799 38.5298C19.305 38.0067 19.6 37.2972 19.6 36.5574V35.9716C22.3842 36.3492 25.1902 36.5449 28 36.5574C30.8098 36.5449 33.6158 36.3492 36.4 35.9716V36.5574C36.4 37.2972 36.695 38.0067 37.2201 38.5298C37.7452 39.053 38.4574 39.3468 39.2 39.3468C39.9426 39.3468 40.6548 39.053 41.1799 38.5298C41.705 38.0067 42 37.2972 42 36.5574V34.9116C44.8611 34.2452 47.6688 33.3687 50.4 32.2895V47.6316ZM50.4 26.1805C47.6767 27.3256 44.8683 28.2582 42 28.97V28.1053C42 27.3654 41.705 26.6559 41.1799 26.1328C40.6548 25.6097 39.9426 25.3158 39.2 25.3158C38.4574 25.3158 37.7452 25.6097 37.2201 26.1328C36.695 26.6559 36.4 27.3654 36.4 28.1053V30.1695C30.8315 31.0064 25.1685 31.0064 19.6 30.1695V28.1053C19.6 27.3654 19.305 26.6559 18.7799 26.1328C18.2548 25.6097 17.5426 25.3158 16.8 25.3158C16.0574 25.3158 15.3452 25.6097 14.8201 26.1328C14.295 26.6559 14 27.3654 14 28.1053V29.0258C11.1317 28.314 8.32329 27.3814 5.6 26.2363V22.5263C5.6 21.7865 5.895 21.077 6.4201 20.5539C6.9452 20.0307 7.65739 19.7368 8.4 19.7368H47.6C48.3426 19.7368 49.0548 20.0307 49.5799 20.5539C50.105 21.077 50.4 21.7865 50.4 22.5263V26.1805Z" fill="currentColor"/>
</svg>