<svg width="66" height="60" viewBox="0 0 66 60" fill="none" xmlns="http://www.w3.org/2000/svg">
<path d="M50.3854 45.4143C51.7722 43.1624 52.3665 40.5185 52.0753 37.8962C51.7841 35.2739 50.6237 32.8213 48.7759 30.9222C46.928 29.0231 44.4969 27.7846 41.863 27.4007C39.2291 27.0167 36.541 27.5088 34.2195 28.8001C31.898 30.0914 30.074 32.1089 29.0329 34.5369C27.9919 36.965 27.7926 39.6665 28.4662 42.2188C29.1398 44.7711 30.6483 47.03 32.7556 48.6422C34.8629 50.2543 37.4501 51.1286 40.1124 51.1283C42.3234 51.1181 44.4903 50.5142 46.3826 49.3808L51.1972 54.1795C51.4574 54.4395 51.767 54.6459 52.1081 54.7867C52.4492 54.9275 52.8151 55 53.1846 55C53.5541 55 53.92 54.9275 54.2611 54.7867C54.6022 54.6459 54.9118 54.4395 55.172 54.1795C55.4344 53.9217 55.6426 53.6149 55.7847 53.2769C55.9268 52.9388 56 52.5763 56 52.2101C56 51.8439 55.9268 51.4814 55.7847 51.1434C55.6426 50.8054 55.4344 50.4986 55.172 50.2407L50.3854 45.4143ZM44.787 43.8332C43.5533 44.9982 41.9145 45.6481 40.2103 45.6481C38.5062 45.6481 36.8674 44.9982 35.6337 43.8332C34.4252 42.6277 33.7469 40.9973 33.7469 39.2981C33.7469 37.5988 34.4252 35.9685 35.6337 34.7629C36.2343 34.1666 36.9476 33.6935 37.733 33.3707C38.5183 33.0479 39.3601 32.8818 40.2103 32.8818C41.0605 32.8818 41.9024 33.0479 42.6877 33.3707C43.473 33.6935 44.1864 34.1666 44.787 34.7629C45.9955 35.9685 46.6738 37.5988 46.6738 39.2981C46.6738 40.9973 45.9955 42.6277 44.787 43.8332ZM47.5862 5H8.39757C6.17039 5 4.03444 5.87672 2.45959 7.43728C0.884741 8.99785 0 11.1144 0 13.3214V38.2856C0 40.4926 0.884741 42.6092 2.45959 44.1698C4.03444 45.7303 6.17039 46.607 8.39757 46.607H19.5943C20.3367 46.607 21.0487 46.3148 21.5736 45.7946C22.0986 45.2744 22.3935 44.5689 22.3935 43.8332C22.3935 43.0976 22.0986 42.392 21.5736 41.8719C21.0487 41.3517 20.3367 41.0594 19.5943 41.0594H8.39757C7.65517 41.0594 6.94319 40.7672 6.41824 40.247C5.89329 39.7268 5.59838 39.0213 5.59838 38.2856V21.6428H50.3854V24.4166C50.3854 25.1523 50.6803 25.8578 51.2053 26.378C51.7302 26.8982 52.4422 27.1904 53.1846 27.1904C53.927 27.1904 54.639 26.8982 55.1639 26.378C55.6889 25.8578 55.9838 25.1523 55.9838 24.4166V13.3214C55.9838 11.1144 55.099 8.99785 53.5242 7.43728C51.9493 5.87672 49.8134 5 47.5862 5ZM50.3854 16.0952H5.59838V13.3214C5.59838 12.5857 5.89329 11.8802 6.41824 11.36C6.94319 10.8398 7.65517 10.5476 8.39757 10.5476H47.5862C48.3286 10.5476 49.0406 10.8398 49.5655 11.36C50.0905 11.8802 50.3854 12.5857 50.3854 13.3214V16.0952ZM22.3935 27.1904H13.9959C13.2536 27.1904 12.5416 27.4827 12.0166 28.0028C11.4917 28.523 11.1968 29.2286 11.1968 29.9642C11.1968 30.6999 11.4917 31.4054 12.0166 31.9256C12.5416 32.4458 13.2536 32.738 13.9959 32.738H22.3935C23.1359 32.738 23.8479 32.4458 24.3728 31.9256C24.8978 31.4054 25.1927 30.6999 25.1927 29.9642C25.1927 29.2286 24.8978 28.523 24.3728 28.0028C23.8479 27.4827 23.1359 27.1904 22.3935 27.1904Z" fill="currentColor"/>
</svg>