<svg width="66" height="60" viewBox="0 0 66 60" fill="none" xmlns="http://www.w3.org/2000/svg">
<path d="M47.8669 4.94661C47.5111 4.66459 47.0953 4.46428 46.6501 4.36042C46.2049 4.25656 45.7417 4.25177 45.2944 4.34643C42.0219 5.01847 38.6437 5.02703 35.3677 4.37159C32.0917 3.71614 28.9873 2.41056 26.2456 0.535234C25.733 0.186743 25.1239 0 24.5 0C23.8761 0 23.267 0.186743 22.7544 0.535234C20.0127 2.41056 16.9083 3.71614 13.6323 4.37159C10.3563 5.02703 6.97812 5.01847 3.70564 4.34643C3.25833 4.25177 2.79505 4.25656 2.34987 4.36042C1.9047 4.46428 1.48893 4.66459 1.13314 4.94661C0.777829 5.22906 0.491613 5.58592 0.295525 5.99099C0.0994376 6.39605 -0.00153796 6.83902 1.77058e-05 7.28735V29.6443C-0.00270497 33.9469 1.04363 38.1879 3.0519 42.0141C5.06017 45.8403 7.97225 49.1409 11.5456 51.6412L22.7238 59.4437C23.2424 59.8055 23.8633 60 24.5 60C25.1367 60 25.7576 59.8055 26.2762 59.4437L37.4544 51.6412C41.0277 49.1409 43.9398 45.8403 45.9481 42.0141C47.9564 38.1879 49.0027 33.9469 49 29.6443V7.28735C49.0015 6.83902 48.9006 6.39605 48.7045 5.99099C48.5084 5.58592 48.2222 5.22906 47.8669 4.94661ZM42.875 29.6443C42.8773 32.9897 42.0643 36.2872 40.5035 39.2624C38.9428 42.2377 36.6794 44.8046 33.9019 46.7497L24.5 53.3218L15.0981 46.7497C12.3206 44.8046 10.0572 42.2377 8.49646 39.2624C6.9357 36.2872 6.12266 32.9897 6.12501 29.6443V10.7384C12.5453 11.2769 18.9754 9.81721 24.5 6.56712C30.0246 9.81721 36.4547 11.2769 42.875 10.7384V29.6443ZM29.2162 22.7722L20.9781 30.8747L18.2525 28.1739C17.6758 27.6088 16.8937 27.2913 16.0781 27.2913C15.2626 27.2913 14.4804 27.6088 13.9038 28.1739C13.3271 28.739 13.0031 29.5054 13.0031 30.3046C13.0031 31.1037 13.3271 31.8701 13.9038 32.4352L18.8038 37.2367C19.0885 37.518 19.4272 37.7412 19.8004 37.8936C20.1736 38.046 20.5738 38.1244 20.9781 38.1244C21.3824 38.1244 21.7827 38.046 22.1559 37.8936C22.5291 37.7412 22.8678 37.518 23.1525 37.2367L33.6875 27.0035C34.2642 26.4384 34.5881 25.672 34.5881 24.8729C34.5881 24.0737 34.2642 23.3073 33.6875 22.7422C33.1108 22.1771 32.3287 21.8596 31.5131 21.8596C30.6976 21.8596 29.9154 22.1771 29.3387 22.7422L29.2162 22.7722Z" fill="#C7C7C7"/>
</svg>