<?xml version="1.0" encoding="utf-8"?>
<!-- Generator: Adobe Illustrator 21.1.0, SVG Export Plug-In . SVG Version: 6.00 Build 0)  -->
<svg version="1.1" xmlns="http://www.w3.org/2000/svg" xmlns:xlink="http://www.w3.org/1999/xlink" x="0" y="0" viewBox="0 0 196 160" xml:space="preserve">
<path d="M98.7,159.1c-2.6,0-4.8-0.7-6.7-1.6c-4.9-2.4-9.6-8.3-8.3-17.4c1.7-11.4,6.8-21.9,11.3-31.1l1-2.1
	c3.5-7.2,7.2-14.2,10.9-21c-7,7.6-13.7,15.2-19.1,21.4c-7.9,9-11.5,13-13.9,15.1c-9.6,8.5-18.4,4.9-20.9,3.6
	c-6.9-3.6-10.3-11.4-9.1-20.8c1.3-10.1,5.6-19.1,9.5-26.7c3.4-6.5,7.1-12.8,10.7-18.8c4.3-7.1,8.3-13.8,11.6-20.8
	c1.2-2.6,2.4-5.2,3.1-7.5c-0.5,0.3-1,0.6-1.5,0.9c-7.9,5.9-16,13.9-23.3,22.9c-1.5,3.5-2.8,5.9-3,6.4c-3.2,6.3-7,13.6-12.3,20.2
	c-9.9,12.2-20.5,5.3-21.6,4.5c-4.3-3-8-9.2-5.5-17.4c0.3-1.1,0.8-2.3,1.4-3.8c0.1-0.2,0.4-0.9,0.8-1.9c-1.5-0.2-3-0.6-4.4-1.2
	c-6.2-2.7-10-9.6-9.3-16.7c0.7-7,5.1-12.3,7.7-15.5l0.5-0.6c8-10,17.1-19.7,29.5-22.7c7.3-1.8,14.3,0,18.9,4.8
	c1.1-0.8,2.1-1.7,3.2-2.5C69.2,2.1,83.4-2.3,95,3c8.2,3.8,13.3,11.7,14,21.7c0.5,7.9-1.5,15-4.3,21.6c16.4-16,26.1-21.5,34.6-21.5
	c0.1,0,0.2,0,0.3,0c5.4,0.1,10.2,2.4,13.6,6.4c7.8,9.4,2.6,21.7,0.7,26.3l-0.2,0.5c-3.9,9.6-8.6,18.6-13.3,27.3l-1.5,2.8
	c0,0.1-0.1,0.1-0.1,0.2c6.5-3.6,14.8-6.3,23.1-2.1c10.7,5.3,11.9,17.3,12.5,22.4l0,0.3c0.4,3.5,0.5,6.8,0.5,10
	c5.4-2.5,12-1.4,16.5,3.1c5.7,5.8,5.6,15-0.2,20.7c-0.3,0.3-0.7,0.7-1.1,1c-6,6-16.1,16.1-28.6,12.4c-4.2-1.2-11.6-5.1-14.2-17
	c-1.4-6.5-1.5-12.7-1.5-18.2c0-0.6,0-1.1,0-1.6c-6.4,5.1-12.3,11-18.4,17c-2.5,2.5-4.8,5-7.4,7.8c-2.4,2.6-4.9,5.3-7.6,8l-0.2,0.2
	C107.3,157.4,102.6,159.1,98.7,159.1z M175.9,133.2L175.9,133.2L175.9,133.2z" fill="#84A878"/>
</svg>
