<svg width="33" height="33" viewBox="0 0 33 33" fill="none" xmlns="http://www.w3.org/2000/svg">
<circle cx="16.3333" cy="16.3335" r="14" fill="white"/>
<path d="M3.57083 26.1065L3.66671 25.8537L3.5077 25.6351C1.60838 23.0235 0.5 19.8185 0.5 16.3333C0.5 7.58531 7.58531 0.5 16.3333 0.5C25.0814 0.5 32.1667 7.58531 32.1667 16.3333C32.1667 25.0814 25.0814 32.1667 16.3333 32.1667C13.1254 32.1667 10.1184 31.2163 7.62735 29.5556L7.43412 29.4268L7.21104 29.4914L1.67995 31.0916L3.57083 26.1065ZM25.3802 23.4694L25.3985 23.4514L25.4149 23.4318C26.1784 22.5156 26.1921 21.1277 25.3541 20.2373L25.3489 20.2318L25.3436 20.2264L22.7711 17.6539C21.6183 16.5012 19.6063 16.9535 19.1224 18.5126L19.1211 18.5172C18.9583 19.0599 18.2967 19.4223 17.7204 19.2783L17.7179 19.2776C16.9202 19.0826 15.9146 18.4443 15.0393 17.5887C14.1632 16.7323 13.5023 15.7409 13.3085 14.9127L13.3024 14.8867L13.2936 14.8615C13.1221 14.3715 13.4615 13.7216 14.0821 13.5003C15.6334 13.0111 16.0814 11.0051 14.9311 9.85478L12.3586 7.28228L12.3532 7.27692L12.3477 7.27173C11.467 6.4429 10.0557 6.42798 9.20145 7.28228L7.44561 9.03811L7.44552 9.03802L7.43749 9.04643C6.89199 9.6179 6.66819 10.4006 6.67456 11.2603C6.68092 12.1186 6.91514 13.0928 7.33074 14.1172C8.16259 16.1677 9.75734 18.5085 11.9366 20.6879C14.1145 22.8863 16.455 24.5127 18.5121 25.3557C19.5399 25.7769 20.5207 26.0123 21.3885 26.0087C22.2594 26.0051 23.0485 25.7589 23.6264 25.1824L25.3802 23.4694Z" fill="#00C42B" stroke="white"/>
</svg>
