<svg width="35" height="25" viewBox="0 0 35 25" fill="none" xmlns="http://www.w3.org/2000/svg">
<g clip-path="url(#clip0_81_874)">
<path d="M23.3143 11.9338C20.1052 10.2188 17.0325 8.6422 13.8916 6.99609V16.8435C17.1968 15.0467 20.6805 13.4013 23.3279 11.9338H23.3143Z" fill="white"/>
<path d="M23.3143 11.9338C20.1052 10.2188 13.8916 6.99609 13.8916 6.99609L22.176 12.5643C22.1766 12.5643 20.6669 13.4013 23.3143 11.9338Z" fill="#E8E0E0"/>
<path d="M14.4955 24.5521C7.82987 24.4294 5.55324 24.319 4.15389 24.0307C3.20714 23.8391 2.38441 23.4138 1.78117 22.7969C1.31493 22.33 0.944153 21.6177 0.656491 20.6294C0.409737 19.806 0.313633 19.1209 0.17662 17.4476C-0.03312 13.6709 -0.08312 10.5833 0.17662 7.13328C0.390906 5.22809 0.494802 2.9664 1.91818 1.64692C2.59026 1.02939 3.37208 0.631985 4.25 0.467699C5.62143 0.207309 11.4643 0.00146484 17.513 0.00146484C23.5481 0.00146484 29.4039 0.207309 30.7766 0.467699C31.8734 0.673543 32.9019 1.29043 33.5058 2.08588C34.8045 4.12874 34.8273 6.669 34.9591 8.65601C35.0136 9.60276 35.0136 14.9787 34.9591 15.9255C34.7539 19.0658 34.589 20.1768 34.1227 21.3287C33.8344 22.056 33.5883 22.4398 33.1623 22.8651C32.4943 23.5196 31.6426 23.955 30.7208 24.1132C24.9526 24.5469 20.0545 24.6411 14.4955 24.5521ZM23.3286 11.9339C20.1195 10.219 17.0468 8.62874 13.9058 6.98263V16.8307C17.211 15.0339 20.6955 13.3878 23.3422 11.9203L23.3286 11.9339Z" fill="#CD201F"/>
</g>
<defs>
<clipPath id="clip0_81_874">
<rect width="35" height="24.584" fill="white"/>
</clipPath>
</defs>
</svg>
