<svg xmlns="http://www.w3.org/2000/svg" width="126" height="41" fill="none" aria-label="@@aria-label" viewBox="0 0 126 41"><path fill="#A97CF0" d="M49.24 36.378c-2.258 0-4.18-.491-5.77-1.474-1.588-.993-2.805-2.372-3.652-4.138-.836-1.767-1.254-3.815-1.254-6.146 0-2.33.418-4.379 1.254-6.145.847-1.766 2.064-3.14 3.653-4.123 1.588-.992 3.511-1.489 5.769-1.489 2.602 0 4.755.659 6.459 1.975 1.713 1.317 2.905 3.089 3.574 5.315l-3.324.893c-.439-1.578-1.222-2.816-2.351-3.715-1.118-.899-2.571-1.348-4.358-1.348-1.6 0-2.932.36-3.998 1.081-1.066.721-1.87 1.73-2.414 3.026-.533 1.296-.8 2.806-.8 4.53-.01 1.725.251 3.235.784 4.53.544 1.297 1.349 2.305 2.415 3.026 1.076.722 2.414 1.082 4.013 1.082 1.787 0 3.24-.45 4.358-1.348 1.129-.91 1.912-2.148 2.351-3.715l3.324.893c-.67 2.226-1.86 3.998-3.575 5.315-1.703 1.316-3.856 1.975-6.458 1.975Zm13.48-.47V13.332h9.124c.22 0 .491.01.815.032.324.01.633.041.925.094 1.254.198 2.3.627 3.136 1.285a6.05 6.05 0 0 1 1.897 2.493c.417 1.003.626 2.11.626 3.323 0 1.223-.209 2.336-.626 3.34a6.051 6.051 0 0 1-1.897 2.492c-.837.658-1.882 1.087-3.136 1.285-.292.042-.606.073-.94.094-.324.021-.59.032-.8.032h-5.847v8.104H62.72Zm3.277-11.21h5.722c.209 0 .439-.01.69-.03.26-.021.506-.058.736-.11.67-.157 1.208-.445 1.615-.863.408-.428.7-.92.878-1.473a5.269 5.269 0 0 0 0-3.308 3.665 3.665 0 0 0-.878-1.458c-.407-.428-.946-.72-1.615-.878a4.013 4.013 0 0 0-.736-.125c-.251-.02-.481-.031-.69-.031h-5.722v8.277Zm16.38 11.21V13.332h9.124c.22 0 .491.01.815.032.324.01.632.041.925.094 1.254.198 2.3.627 3.135 1.285a6.05 6.05 0 0 1 1.897 2.493c.418 1.003.627 2.11.627 3.323 0 1.798-.46 3.35-1.38 4.656-.919 1.296-2.298 2.106-4.138 2.43l-1.332.157h-6.396v8.104h-3.277Zm13.2 0-4.452-9.187 3.308-.846 4.89 10.032h-3.746Zm-9.923-11.21h5.722c.209 0 .439-.01.69-.03.26-.021.506-.058.736-.11.67-.157 1.207-.445 1.615-.863.407-.428.7-.92.878-1.473a5.269 5.269 0 0 0 0-3.308 3.665 3.665 0 0 0-.878-1.458c-.408-.428-.946-.72-1.615-.878a4.013 4.013 0 0 0-.737-.125c-.25-.02-.48-.031-.69-.031h-5.721v8.277Zm26.537 11.68c-2.258 0-4.181-.491-5.769-1.474-1.589-.993-2.806-2.372-3.653-4.138-.836-1.767-1.254-3.815-1.254-6.146 0-2.33.418-4.379 1.254-6.145.847-1.766 2.064-3.14 3.653-4.123 1.588-.992 3.511-1.489 5.769-1.489 2.247 0 4.164.497 5.753 1.49 1.599.982 2.816 2.356 3.652 4.122.837 1.766 1.255 3.815 1.255 6.145 0 2.331-.418 4.38-1.255 6.146-.836 1.766-2.053 3.145-3.652 4.138-1.589.983-3.506 1.474-5.753 1.474Zm0-3.12c1.599.021 2.926-.33 3.981-1.05 1.066-.732 1.866-1.745 2.399-3.041.533-1.307.799-2.822.799-4.547 0-1.724-.266-3.229-.799-4.514-.533-1.296-1.333-2.305-2.399-3.026-1.055-.721-2.382-1.087-3.981-1.097-1.599-.021-2.932.329-3.998 1.05-1.055.721-1.85 1.735-2.383 3.041-.533 1.307-.804 2.822-.815 4.546-.01 1.725.251 3.235.784 4.53.533 1.286 1.332 2.29 2.398 3.01 1.077.722 2.415 1.088 4.014 1.098ZM.795 19.25 13.125 2.11a1.908 1.908 0 0 1 3.074-.031L29.054 19.22c.505.675.509 1.601.007 2.279L16.207 38.882a1.908 1.908 0 0 1-3.09-.03L.788 21.468a1.907 1.907 0 0 1 .007-2.217Z"/></svg>