<svg xmlns="http://www.w3.org/2000/svg" width="15" height="15" fill="none" viewBox="0 0 15 15"><g fill="#9157EC"><path d="M6.614 12.831A3.143 3.143 0 0 1 2.17 8.388l2.664-2.666-.885-.883-2.663 2.665a4.393 4.393 0 0 0 6.214 6.21l2.664-2.663-.884-.884-2.666 2.664ZM13.715 1.288A4.362 4.362 0 0 0 10.609 0a4.364 4.364 0 0 0-3.105 1.286L4.837 3.95l.884.885L8.387 2.17a3.12 3.12 0 0 1 2.221-.92 3.143 3.143 0 0 1 2.221 5.364l-2.664 2.663.885.885L13.714 7.5a4.399 4.399 0 0 0 0-6.212Z"/><path d="m9.278 4.839-4.44 4.44.884.884 4.44-4.44-.884-.884Z"/></g></svg>