<svg xmlns="http://www.w3.org/2000/svg" width="145" height="99" fill="none" viewBox="0 0 145 99"><path fill="#fff" d="M70.959 26.214c4.953 0 7.255-2.463 7.255-5.327 0-6.88-11.351-4.016-11.351-8.594 0-1.633 1.365-2.972 4.551-2.972 1.66 0 3.507.482 5.14 1.526l.884-2.142c-1.553-1.07-3.829-1.66-6.024-1.66-4.926 0-7.175 2.463-7.175 5.355 0 6.96 11.352 4.07 11.352 8.647 0 1.633-1.393 2.892-4.632 2.892-2.41 0-4.792-.91-6.184-2.169l-.99 2.088c1.498 1.392 4.31 2.356 7.174 2.356ZM96.127 26h2.811L90.425 7.26h-2.65L79.287 26h2.757l2.062-4.685h9.959L96.127 26Zm-11.083-6.827 4.042-9.183 4.043 9.183h-8.085ZM115.173 7.26v13.975L103.929 7.26h-2.195V26h2.677V12.025L115.655 26h2.195V7.26h-2.677ZM65.498 92H78.32v-2.33H68.175V73.26h-2.677V92Zm23.346.214c4.952 0 7.924-2.864 7.924-8.3V73.26h-2.597v10.548c0 4.15-1.927 6.023-5.3 6.023-3.374 0-5.275-1.874-5.275-6.023V73.26H80.92v10.655c0 5.435 2.999 8.3 7.925 8.3Zm28.01-.214-7.095-9.691 6.613-9.05h-2.918l-5.194 7.202-5.247-7.201h-3.052l6.612 9.129L99.533 92h3.078l5.542-7.737L113.775 92h3.079Z"/><path fill="#FFC907" d="M64.909 59h8.513c6.13 0 10.334-3.694 10.334-9.37 0-5.676-4.203-9.37-10.334-9.37H64.91V59Zm4.337-3.56V43.82h3.962c3.721 0 6.157 2.222 6.157 5.81 0 3.587-2.436 5.81-6.157 5.81h-3.962Zm30.861-15.18-5.783 13.386L88.62 40.26h-4.685L92.021 59h4.284l8.112-18.74h-4.31Zm10.185 15.26v-4.337h8.701v-3.374h-8.701V43.74h9.852v-3.48h-14.162V59h14.51v-3.48h-10.2ZM140.541 59l-4.203-6.024c2.436-1.044 3.855-3.105 3.855-5.916 0-4.204-3.132-6.8-8.138-6.8h-8.112V59h4.337v-5.22h3.989l3.614 5.22h4.658Zm-4.738-11.94c0 2.034-1.339 3.266-3.989 3.266h-3.534v-6.532h3.534c2.65 0 3.989 1.204 3.989 3.266Z"/><path stroke="#fff" stroke-width="3" d="M1.75 5.5h45.612v87.179H1.75z"/><path fill="#fff" d="M.25 48h21.136v3H.25zM25.269 48h-3v3h3z"/></svg>