<svg xmlns="http://www.w3.org/2000/svg" width="16" height="16" fill="none" viewBox="0 0 16 16"><path fill="currentColor" d="M8 0a5.801 5.801 0 0 0-5.795 5.795c0 3.965 5.186 9.786 5.407 10.032.207.23.57.23.776 0 .221-.246 5.407-6.067 5.407-10.032C13.795 2.599 11.195 0 8 0Zm0 14.679c-1.745-2.073-4.751-6.163-4.751-8.884A4.756 4.756 0 0 1 8 1.043a4.756 4.756 0 0 1 4.751 4.752c0 2.721-3.005 6.81-4.751 8.884Z"/><path fill="currentColor" d="M8 2.88a2.919 2.919 0 0 0-2.915 2.915A2.919 2.919 0 0 0 8 8.71a2.919 2.919 0 0 0 2.915-2.915A2.919 2.919 0 0 0 8 2.879Zm0 4.786a1.874 1.874 0 0 1-1.872-1.871c0-1.033.84-1.872 1.872-1.872s1.872.84 1.872 1.872S9.032 7.666 8 7.666Z"/></svg>