<svg xmlns="http://www.w3.org/2000/svg" width="31" height="31" fill="none" viewBox="0 0 31 31"><g><path fill="#fff" d="M28.054 16.242a11.812 11.812 0 0 1-11.812 11.812A11.812 11.812 0 0 1 4.43 16.242 11.812 11.812 0 0 1 16.242 4.43a11.812 11.812 0 0 1 11.812 11.812z"/><path fill="#008DDD" d="M15.5 31C24.063 31 31 24.062 31 15.5 31 6.937 24.062 0 15.5 0 6.937 0 0 6.938 0 15.5 0 24.063 6.938 31 15.5 31zM7.092 15.164l14.945-5.762c.694-.25 1.3.169 1.075 1.218l.002-.001-2.545 11.988c-.189.85-.694 1.056-1.4.656l-3.875-2.856-1.87 1.8c-.206.207-.38.381-.78.381l.274-3.943 7.182-6.488c.313-.275-.07-.43-.482-.156l-8.875 5.587-3.826-1.193c-.83-.264-.848-.83.176-1.231z"/></g></svg>