<svg xmlns="http://www.w3.org/2000/svg" width="31" height="31" fill="none" viewBox="0 0 31 31"><path fill="#665CAC" d="M18.6 0h-6.2C6.415 0 1.547 4.868 1.547 10.851v4.65c0 4.201 2.423 8.014 6.201 9.807v5.179c0 .45.563.685.882.365l4.5-4.499h5.47c5.983 0 10.85-4.868 10.85-10.851v-4.65C29.451 4.867 24.584 0 18.601 0z"/><path fill="#523494" d="M9.3 25.308a10.856 10.856 0 0 1-6.202-9.806v-4.65C3.098 4.867 7.966 0 13.95 0H12.4C6.416 0 1.55 4.868 1.55 10.851v4.65c0 4.202 2.422 8.014 6.2 9.807v5.179c0 .45.563.685.882.365l.668-.668v-4.876z"/><path fill="#fff" d="m23.301 19.26-.465-2.517a.517.517 0 0 0-.406-.413l-3.654-.73a.517.517 0 0 0-.467.141l-1.484 1.484c-2.502-1.12-3.89-2.511-5.11-5.12l1.479-1.48a.517.517 0 0 0 .141-.466l-.73-3.654a.517.517 0 0 0-.414-.407l-2.516-.464a.518.518 0 0 0-.209.004c-.664.15-1.27.486-1.753.968-.836.836-1.155 2.056-.924 3.527.39 2.47 1.6 5.909 3.833 8.151l.03.03c2.24 2.232 5.68 3.443 8.15 3.831.311.05.611.074.899.074 1.071 0 1.969-.338 2.628-.997a3.606 3.606 0 0 0 .968-1.754.52.52 0 0 0 .004-.208z"/><path fill="#E5E5E5" d="M20.675 21.244a5.77 5.77 0 0 1-.898-.073c-2.471-.389-5.91-1.6-8.15-3.831l-.03-.03c-2.234-2.243-3.444-5.681-3.833-8.152-.187-1.189-.014-2.213.5-3.003a3.618 3.618 0 0 0-.551.451c-.836.836-1.155 2.055-.924 3.527.39 2.47 1.6 5.909 3.833 8.15l.03.031c2.24 2.232 5.68 3.442 8.15 3.831.311.05.611.073.899.073 1.071 0 1.969-.337 2.628-.996.169-.17.32-.354.45-.551-.583.38-1.294.573-2.104.573z"/><path fill="#fff" d="M16.533 4.65c-.185 0-.37.008-.555.022a.517.517 0 0 0 .078 1.031 6.208 6.208 0 0 1 6.512 7.613.522.522 0 0 0 .367.618.52.52 0 0 0 .639-.38 7.274 7.274 0 0 0 .193-1.67c0-3.988-3.245-7.234-7.234-7.234zm0 2.067c-.191 0-.383.01-.572.031a.517.517 0 0 0 .113 1.027 4.14 4.14 0 0 1 4.568 4.57c-.03.28.178.54.457.571.28.03.54-.177.57-.457a5.174 5.174 0 0 0-5.137-5.742zm0 2.068a.517.517 0 0 0 0 1.033c1.14 0 2.066.927 2.066 2.067 0 .281.236.517.518.517a.523.523 0 0 0 .518-.517c0-1.71-1.392-3.1-3.102-3.1z"/></svg>