<svg xmlns="http://www.w3.org/2000/svg" width="31" height="31" fill="none" viewBox="0 0 31 31"><g clip-path="url(#a)"><path fill="#4CAF50" d="M15.504 0h-.008C6.95 0 0 6.952 0 15.5c0 3.39 1.093 6.533 2.95 9.085l-1.93 5.758 5.957-1.904A15.365 15.365 0 0 0 15.504 31C24.05 31 31 24.046 31 15.5S24.05 0 15.504 0Z"/><path fill="#FAFAFA" d="M24.523 21.888c-.374 1.056-1.858 1.932-3.042 2.187-.81.173-1.868.31-5.429-1.166-4.555-1.887-7.488-6.516-7.717-6.816-.219-.3-1.84-2.451-1.84-4.675 0-2.225 1.129-3.308 1.584-3.773.374-.381.992-.556 1.585-.556.192 0 .364.01.52.018.455.02.683.046.984.765.374.901 1.284 3.125 1.393 3.354.11.228.22.538.066.839-.146.31-.274.447-.502.71-.229.264-.446.466-.674.749-.21.246-.446.51-.183.965.264.445 1.175 1.931 2.515 3.125 1.73 1.54 3.133 2.032 3.635 2.241.374.155.82.119 1.093-.172.347-.374.775-.994 1.21-1.604.31-.438.702-.492 1.113-.337.418.145 2.633 1.24 3.088 1.466.456.229.756.338.866.53.109.191.109 1.092-.265 2.15Z"/></g></svg>