<svg xmlns="http://www.w3.org/2000/svg" width="193" height="88" fill="none" viewBox="0 0 193 88"><g fill="#F1F3F9" filter="url(#a)"><path d="M36.354 65.79a4 4 0 0 1-3.824-2.827L21.602 27.349c-.794-2.585 1.153-5.196 3.857-5.173l1.19.01a4 4 0 0 1 3.79 2.828l3.91 12.763c1.154 3.763 6.477 3.774 7.645.015l3.967-12.768a4 4 0 0 1 3.82-2.814h2.346a4 4 0 0 1 3.821 2.819l3.946 12.758c1.162 3.76 6.486 3.757 7.644-.005l3.924-12.748a4 4 0 0 1 3.823-2.823h1.212c2.691 0 4.614 2.603 3.824 5.175L69.383 62.965a4 4 0 0 1-3.824 2.825h-1.79a4 4 0 0 1-3.796-2.741L54.74 47.276c-1.213-3.657-6.386-3.654-7.595.004l-5.208 15.764a4 4 0 0 1-3.798 2.746h-1.785Z"/><path d="M96.462 67c-4.384 0-8.214-.982-11.489-2.946-3.275-1.963-5.819-4.667-7.632-8.11-1.787-3.47-2.68-7.452-2.68-11.944 0-4.573.92-8.581 2.76-12.025 1.841-3.443 4.399-6.133 7.674-8.07C88.37 21.968 92.159 21 96.462 21c4.412 0 8.255.982 11.53 2.946 3.275 1.963 5.819 4.68 7.632 8.15 1.814 3.444 2.72 7.412 2.72 11.904 0 4.52-.92 8.514-2.76 11.984-1.814 3.444-4.358 6.147-7.633 8.11C104.677 66.033 100.847 67 96.462 67Zm0-9.12c3.898 0 6.794-1.29 8.688-3.873 1.895-2.582 2.842-5.918 2.842-10.007 0-4.223-.961-7.586-2.882-10.088-1.922-2.528-4.804-3.793-8.648-3.793-2.625 0-4.79.592-6.495 1.776-1.678 1.156-2.923 2.784-3.735 4.882-.812 2.072-1.218 4.48-1.218 7.223 0 4.223.96 7.6 2.882 10.128 1.949 2.502 4.804 3.753 8.566 3.753Z"/><path d="M127.442 65.79a4 4 0 0 1-3.824-2.827L112.69 27.349c-.793-2.585 1.154-5.196 3.858-5.173l1.189.01a4 4 0 0 1 3.791 2.828l3.91 12.763c1.153 3.763 6.477 3.774 7.644.015l3.967-12.768a4 4 0 0 1 3.82-2.814h2.346a4 4 0 0 1 3.821 2.819l3.946 12.758c1.163 3.76 6.486 3.757 7.644-.005l3.924-12.748a4 4 0 0 1 3.823-2.823h1.213c2.69 0 4.614 2.603 3.823 5.175l-10.938 35.579a4 4 0 0 1-3.823 2.825h-1.79a4 4 0 0 1-3.797-2.741l-5.233-15.773c-1.213-3.657-6.386-3.654-7.594.004l-5.209 15.764a4 4 0 0 1-3.798 2.746h-1.785Z"/></g><defs><filter id="a" width="192.165" height="88" x=".423" y="0" color-interpolation-filters="sRGB" filterUnits="userSpaceOnUse"><feFlood flood-opacity="0" result="BackgroundImageFix"/><feColorMatrix in="SourceAlpha" result="hardAlpha" values="0 0 0 0 0 0 0 0 0 0 0 0 0 0 0 0 0 0 127 0"/><feOffset/><feGaussianBlur stdDeviation="10.5"/><feComposite in2="hardAlpha" operator="out"/><feColorMatrix values="0 0 0 0 1 0 0 0 0 1 0 0 0 0 1 0 0 0 0.5 0"/><feBlend in2="BackgroundImageFix" result="effect1_dropShadow_22_983"/><feBlend in="SourceGraphic" in2="effect1_dropShadow_22_983" result="shape"/></filter></defs></svg>